<svg xmlns="http://www.w3.org/2000/svg" viewBox="0 0 500 500"><g id="freepik--Floor--inject-18"><g id="freepik--floor--inject-18"><polygon points="250.02 464.21 36.57 340.98 249.99 217.99 463.48 340.98 250.02 464.21" style="fill:#4756C2"></polygon><polygon points="36.57 340.98 36.57 353.55 250.02 476.79 250.02 464.21 36.57 340.98" style="fill:#4756C2"></polygon><polygon points="36.57 340.98 36.57 353.55 250.02 476.79 250.02 464.21 36.57 340.98" style="opacity:0.15"></polygon><polygon points="250.02 476.79 463.48 353.55 463.48 340.98 250.02 464.21 250.02 476.79" style="fill:#4756C2"></polygon><polygon points="250.02 476.79 463.48 353.55 463.48 340.98 250.02 464.21 250.02 476.79" style="opacity:0.1"></polygon></g></g><g id="freepik--Clouds--inject-18"><g id="freepik--clouds--inject-18"><path d="M100.83,36.42l-9.41,5.43c0-.42.07-.84.07-1.25V37.88c0-4.86-3.4-6.82-7.61-4.4a14.78,14.78,0,0,0-4.53,4.37c-.69-6.11-5.48-8.38-11.29-5-6.29,3.63-11.39,12.46-11.39,19.72v4.08a10.65,10.65,0,0,0,1,4.72l-7.82,4.52a9.32,9.32,0,0,0-4.22,7.31c0,2.69,1.89,3.78,4.22,2.44l51-29.46a9.32,9.32,0,0,0,4.22-7.31C105.05,36.16,103.16,35.07,100.83,36.42Z" style="fill:#ebebeb"></path><path d="M146.13,56.81,139,60.91a7.54,7.54,0,0,0,.06-.94V57.91c0-3.66-2.57-5.14-5.74-3.31a11,11,0,0,0-3.42,3.29c-.52-4.61-4.14-6.32-8.52-3.79-4.75,2.74-8.6,9.4-8.6,14.88v3.08a8.18,8.18,0,0,0,.73,3.57L107.63,79a7,7,0,0,0-3.19,5.52c0,2,1.43,2.85,3.19,1.84l38.5-22.23a7.06,7.06,0,0,0,3.19-5.52C149.32,56.62,147.89,55.79,146.13,56.81Z" style="fill:#ebebeb"></path></g><path id="freepik--Cloud--inject-18" d="M384.17,56.65l7.1,4.1c0-.31-.06-.63-.06-.94V57.75c0-3.66,2.58-5.14,5.75-3.31a11.11,11.11,0,0,1,3.42,3.29c.52-4.61,4.13-6.32,8.52-3.79,4.75,2.74,8.6,9.41,8.6,14.88V71.9a8.18,8.18,0,0,1-.73,3.57l5.9,3.41a7,7,0,0,1,3.19,5.52c0,2-1.43,2.85-3.19,1.84L384.17,64A7.06,7.06,0,0,1,381,58.49C381,56.46,382.41,55.63,384.17,56.65Z" style="fill:#ebebeb"></path></g><g id="freepik--Plants--inject-18"><g id="freepik--plants--inject-18"><path d="M438.09,312c-1-6.55,1.79-20.79,7.33-30.28s15.31-17.26,23.27-15.78c7.42,1.39,8,10.76.34,18.16s-24.13,21.33-26.35,32.5l-1.28,9.83Z" style="fill:#4756C2"></path><path d="M438.09,312c-1-6.55,1.79-20.79,7.33-30.28s15.31-17.26,23.27-15.78c7.42,1.39,8,10.76.34,18.16s-24.13,21.33-26.35,32.5l-1.28,9.83Z" style="opacity:0.15"></path><path d="M438.92,321.05a.49.49,0,0,0,.37-.45c1.11-23,16.52-43.77,26.75-49.36a.49.49,0,0,0-.47-.85c-10.42,5.7-26.12,26.84-27.24,50.17a.47.47,0,0,0,.45.5Z" style="fill:#fff"></path><path d="M438.76,340.36c.52-3.83,4.12-10.55,10.65-16.63,7.23-6.72,17-10.76,18.74-15.42,2.05-5.6-3-9.86-11.14-7.62s-21,15.62-20.81,32.92Z" style="fill:#4756C2"></path><path d="M438.76,340.36c.52-3.83,4.12-10.55,10.65-16.63,7.23-6.72,17-10.76,18.74-15.42,2.05-5.6-3-9.86-11.14-7.62s-21,15.62-20.81,32.92Z" style="opacity:0.30000000000000004"></path><path d="M436.6,336.74a.48.48,0,0,0,.37-.38c4-20.13,17.66-29,24.29-30.85a.47.47,0,0,0,.33-.6.47.47,0,0,0-.59-.33c-7.34,2.06-20.85,11-25,31.59a.49.49,0,0,0,.38.57A.45.45,0,0,0,436.6,336.74Z" style="fill:#fff"></path></g><g id="freepik--plants--inject-18"><path d="M64.37,305.62s.84-14.15-4.18-26.11-13.32-20.34-22-22.58-17.28,4.64-8.79,11.88,24.3,15.88,28.39,38.12Z" style="fill:#4756C2"></path><path d="M64.37,305.62s.84-14.15-4.18-26.11-13.32-20.34-22-22.58-17.28,4.64-8.79,11.88,24.3,15.88,28.39,38.12Z" style="opacity:0.15"></path><path d="M62.4,301.56h.1a.49.49,0,0,0,.37-.57c-5.32-24.61-21.41-37.31-29.18-40.59a.49.49,0,0,0-.63.26.48.48,0,0,0,.26.63c7.6,3.21,23.37,15.68,28.61,39.9A.48.48,0,0,0,62.4,301.56Z" style="fill:#fff"></path><path d="M27,294.64c.19,1.88,1.71,3.32,3.16,4.53s3,2.53,3.43,4.37c.8,3.74-3.62,7.18-2.66,10.87a5.91,5.91,0,0,0,3.11,3.48c1.17.63,2.44,1,3.67,1.56a17,17,0,0,0,1.84.44,8.57,8.57,0,0,1,5,2.24c2,2.22,1.78,5.62,2.51,8.54a12.44,12.44,0,0,0,6.69,8c2.71,1.3,7.16,2,8.3,1,.86-.77.14-4.17.46-5.29a47.25,47.25,0,0,0,1.66-8.75,16.86,16.86,0,0,1,.7-4c.48-1.44,1-2.89,1.41-4.34s1.27-2.67,1.22-4.43A16.86,16.86,0,0,0,66.4,308q-.8-2.36-1.65-4.68A23.56,23.56,0,0,0,62.3,298a12.46,12.46,0,0,0-8.36-5.25c-2.77-.42-5.83.22-8.5-.78s-4.95-2.53-7.71-3.21a9.89,9.89,0,0,0-8.53,1.43A5.23,5.23,0,0,0,27,294.64Z" style="fill:#4756C2"></path><path d="M27,294.64c.19,1.88,1.71,3.32,3.16,4.53s3,2.53,3.43,4.37c.8,3.74-3.62,7.18-2.66,10.87a5.91,5.91,0,0,0,3.11,3.48c1.17.63,2.44,1,3.67,1.56a17,17,0,0,0,1.84.44,8.57,8.57,0,0,1,5,2.24c2,2.22,1.78,5.62,2.51,8.54a12.44,12.44,0,0,0,6.69,8c2.71,1.3,7.16,2,8.3,1,.86-.77.14-4.17.46-5.29a47.25,47.25,0,0,0,1.66-8.75,16.86,16.86,0,0,1,.7-4c.48-1.44,1-2.89,1.41-4.34s1.27-2.67,1.22-4.43A16.86,16.86,0,0,0,66.4,308q-.8-2.36-1.65-4.68A23.56,23.56,0,0,0,62.3,298a12.46,12.46,0,0,0-8.36-5.25c-2.77-.42-5.83.22-8.5-.78s-4.95-2.53-7.71-3.21a9.89,9.89,0,0,0-8.53,1.43A5.23,5.23,0,0,0,27,294.64Z" style="opacity:0.30000000000000004"></path><path d="M57.42,309.34a.46.46,0,0,0-.13-.18c-7.67-10.86-19.69-16-23.75-16.92a.44.44,0,0,0-.51.33.42.42,0,0,0,.33.5c3.84.86,15,5.62,22.5,15.57a23.38,23.38,0,0,0-18.68,1.65.42.42,0,0,0-.13.59.42.42,0,0,0,.34.19.44.44,0,0,0,.25-.06,22.61,22.61,0,0,1,19.1-1.17,35.64,35.64,0,0,1,6.39,21.92.42.42,0,0,0,.38.44h0a.43.43,0,0,0,.44-.41A36.42,36.42,0,0,0,57.42,309.34Z" style="fill:#fff"></path></g></g><g id="freepik--Walls--inject-18"><g id="freepik--walls--inject-18"><polygon points="250 441.89 433.12 336.15 249.99 230.42 66.86 336.15 250 441.89" style="fill:#4756C2"></polygon><g style="opacity:0.9"><polygon points="250 441.89 433.12 336.15 249.99 230.42 66.86 336.15 250 441.89" style="fill:#fff"></polygon></g><polygon points="249.99 449.44 250 441.89 433.12 336.15 433.12 147.34 439.66 143.57 438.87 340.38 249.99 449.44" style="fill:#37474f"></polygon><polygon points="250.02 449.44 250 441.89 66.89 336.15 66.89 147.34 60.35 143.57 61.14 340.38 250.02 449.44" style="fill:#455a64"></polygon><polygon points="60.35 143.57 249.99 34.06 249.99 41.61 66.89 147.34 60.35 143.57" style="fill:#37474f"></polygon><polygon points="439.63 143.57 249.99 34.06 249.99 41.61 433.09 147.34 439.63 143.57" style="fill:#455a64"></polygon><polygon points="249.99 230.42 249.99 41.61 433.12 147.34 433.12 336.15 249.99 230.42" style="fill:#4756C2"></polygon><g style="opacity:0.8"><polygon points="249.99 230.42 249.99 41.61 433.12 147.34 433.12 336.15 249.99 230.42" style="fill:#fff"></polygon></g><polygon points="433.12 336.15 433.12 325.67 249.99 219.94 249.99 230.42 433.12 336.15" style="fill:#fafafa"></polygon><polygon points="249.99 230.42 249.99 41.61 66.86 147.34 66.86 336.15 249.99 230.42" style="fill:#4756C2"></polygon><g style="opacity:0.6000000000000001"><polygon points="249.99 230.42 249.99 41.61 66.86 147.34 66.86 336.15 249.99 230.42" style="fill:#fff"></polygon></g><g style="opacity:0.1"><polygon points="249.99 230.42 249.99 41.61 66.86 147.34 66.86 336.15 249.99 230.42"></polygon></g><polygon points="66.86 336.15 66.85 325.67 249.99 219.94 249.99 230.42 66.86 336.15" style="fill:#ebebeb"></polygon></g></g><g id="freepik--Windows--inject-18"><g id="freepik--Window--inject-18"><polygon points="128.05 228.36 130.38 229.71 188.73 196.02 186.4 194.67 128.05 228.36" style="fill:#455a64"></polygon><polygon points="186.4 194.67 130.38 227.01 130.38 171.09 186.4 138.75 186.4 194.67" style="fill:#4756C2"></polygon><polygon points="186.4 194.67 130.38 227.01 130.38 171.09 186.4 138.75 186.4 194.67" style="fill:#fff;opacity:0.85"></polygon><polygon points="159.56 152.9 159.56 211.52 161.89 210.17 161.89 151.55 159.56 152.9" style="fill:#4756C2"></polygon><polygon points="159.56 152.9 159.56 211.52 161.89 210.17 161.89 151.55 159.56 152.9" style="opacity:0.2"></polygon><polygon points="159.56 154.24 161.88 152.9 161.88 154.25 159.56 155.59 159.56 154.24" style="opacity:0.1"></polygon><polygon points="158.39 152.22 159.56 152.9 159.56 211.52 158.39 210.84 158.39 152.22" style="fill:#263238"></polygon><polygon points="159.56 155.59 158.39 154.92 159.56 154.24 159.56 155.59"></polygon><path d="M191.07,133.35l-63,36.39v64l63-36.39ZM188.73,196l-58.35,33.69V171.09l58.35-33.69Z" style="fill:#4756C2"></path><path d="M191.07,133.35l-63,36.39v64l63-36.39ZM188.73,196l-58.35,33.69V171.09l58.35-33.69Z" style="opacity:0.2"></path><polygon points="188.73 196.02 186.4 194.67 186.4 138.75 188.73 137.4 188.73 196.02" style="fill:#263238"></polygon><polygon points="191.07 133.35 188.73 132.01 125.71 168.39 128.05 169.74 191.07 133.35" style="fill:#455a64"></polygon><polygon points="125.71 168.39 128.05 169.74 128.05 233.75 125.71 232.4 125.71 168.39" style="fill:#263238"></polygon></g><g id="freepik--window--inject-18"><polygon points="371.93 228.36 369.6 229.71 311.25 196.02 313.58 194.67 371.93 228.36" style="fill:#455a64"></polygon><polygon points="313.58 194.67 369.6 227.01 369.6 171.09 313.58 138.75 313.58 194.67" style="fill:#4756C2"></polygon><polygon points="313.58 194.67 369.6 227.01 369.6 171.09 313.58 138.75 313.58 194.67" style="fill:#fff;opacity:0.9500000000000001"></polygon><polygon points="340.42 152.9 340.42 211.52 338.09 210.17 338.09 151.55 340.42 152.9" style="fill:#4756C2"></polygon><polygon points="340.42 152.9 340.42 211.52 338.09 210.17 338.09 151.55 340.42 152.9" style="opacity:0.2"></polygon><polygon points="340.42 154.24 338.09 152.9 338.09 154.25 340.42 155.59 340.42 154.24" style="opacity:0.1"></polygon><polygon points="341.59 152.22 340.42 152.9 340.42 211.52 341.59 210.84 341.59 152.22" style="fill:#263238"></polygon><polygon points="340.42 155.59 341.59 154.92 340.42 154.24 340.42 155.59"></polygon><path d="M308.91,197.36l63,36.39v-64l-63-36.39Zm2.34-60,58.35,33.69v58.62L311.25,196Z" style="fill:#4756C2"></path><path d="M308.91,197.36l63,36.39v-64l-63-36.39Zm2.34-60,58.35,33.69v58.62L311.25,196Z" style="opacity:0.2"></path><polygon points="311.25 196.02 313.58 194.67 313.58 138.75 311.25 137.4 311.25 196.02" style="fill:#263238"></polygon><polygon points="308.91 133.35 311.25 132.01 374.27 168.39 371.93 169.74 308.91 133.35" style="fill:#455a64"></polygon><polygon points="374.27 168.39 371.93 169.74 371.93 233.75 374.27 232.4 374.27 168.39" style="fill:#263238"></polygon></g></g><g id="freepik--Lamp--inject-18"><path id="freepik--Shadow--inject-18" d="M221.42,254.68c-6.74,3.89-6.74,10.19,0,14.08s17.65,3.89,24.38,0,6.74-10.19,0-14.08S228.15,250.79,221.42,254.68Z" style="opacity:0.1"></path><g id="freepik--lamp--inject-18"><path d="M225.16,254.85c-4.66,2.7-4.66,7.06,0,9.76s12.23,2.69,16.9,0,4.66-7.06,0-9.76S229.83,252.16,225.16,254.85Z" style="fill:#37474f"></path><path d="M245.56,259.73h0c0-1.77-1.16-3.53-3.49-4.88-4.67-2.69-12.23-2.69-16.9,0-2.33,1.35-3.49,3.11-3.49,4.88h0v1.65h0c0,1.74,1.2,3.48,3.5,4.81,4.67,2.69,12.23,2.69,16.9,0,2.3-1.33,3.47-3.07,3.5-4.81h0Z" style="fill:#263238"></path><path d="M225.16,254.85c-4.66,2.7-4.66,7.06,0,9.76s12.23,2.69,16.9,0,4.66-7.06,0-9.76S229.83,252.16,225.16,254.85Z" style="fill:#37474f"></path><path d="M234.9,172.65h-2.58V259h0a.61.61,0,0,0,.37.59,2,2,0,0,0,1.82,0,.61.61,0,0,0,.37-.59h0Z" style="fill:#455a64"></path><circle cx="233.61" cy="162.2" r="14.17" style="fill:#f5f5f5"></circle><path d="M233.61,158a11.93,11.93,0,0,1-5.91-1.4c-1.38-.79-2.13-1.78-2.13-2.8s.75-2,2.13-2.8a13.26,13.26,0,0,1,11.82,0c1.38.8,2.13,1.79,2.13,2.8s-.75,2-2.13,2.8A11.93,11.93,0,0,1,233.61,158Z" style="fill:#e0e0e0"></path><path d="M233.61,153.14a4,4,0,0,0-4,4c0,.06,0,.11,0,.17a13.55,13.55,0,0,0,8,0c0-.06,0-.11,0-.17A4,4,0,0,0,233.61,153.14Z" style="fill:#4756C2"></path><g style="opacity:0.8"><path d="M233.61,153.14a4,4,0,0,0-4,4c0,.06,0,.11,0,.17a13.55,13.55,0,0,0,8,0c0-.06,0-.11,0-.17A4,4,0,0,0,233.61,153.14Z" style="fill:#fff"></path></g></g></g><g id="freepik--Table--inject-18"><path d="M261.18,256.4c-8.71,5-8.71,13.19,0,18.23s22.85,5,31.56,0,8.72-13.19,0-18.23S269.9,251.37,261.18,256.4Z" style="opacity:0.1"></path><g id="freepik--table--inject-18"><g id="freepik--table--inject-18"><path d="M265.48,224.76a.64.64,0,0,1,.38-.53,2,2,0,0,1,1.85,0,.64.64,0,0,1,.38.53L262,265.58h0a.46.46,0,0,1-.27.36,1.44,1.44,0,0,1-1.31,0,.44.44,0,0,1-.27-.36h0Z" style="fill:#455a64"></path><path d="M288.13,224.76a.66.66,0,0,0-.38-.53,2,2,0,0,0-1.86,0,.66.66,0,0,0-.38.53l6.13,40.82h0a.44.44,0,0,0,.27.36,1.42,1.42,0,0,0,1.3,0,.44.44,0,0,0,.27-.36h0Z" style="fill:#455a64"></path><path d="M278.27,226.11a.67.67,0,0,0-.38-.54,2.08,2.08,0,0,0-1.85,0,.67.67,0,0,0-.39.54l.39,46h0a.47.47,0,0,0,.27.37,1.44,1.44,0,0,0,1.31,0,.52.52,0,0,0,.27-.37h0Z" style="fill:#455a64"></path><path d="M300.41,215h0c0-3.47-2.27-6.93-6.85-9.58-9.15-5.29-24-5.29-33.16,0-4.58,2.65-6.85,6.11-6.85,9.58h0v1.86h0c.06,3.42,2.35,6.83,6.87,9.43,9.16,5.29,24,5.29,33.16,0,4.52-2.6,6.82-6,6.87-9.43h0Z" style="fill:#4756C2"></path><path d="M260.38,205.39c-9.16,5.29-9.16,13.86,0,19.15s24,5.29,33.16,0,9.16-13.86,0-19.15S269.54,200.1,260.38,205.39Z" style="fill:#4756C2"></path><path d="M260.38,205.39c-9.16,5.29-9.16,13.86,0,19.15s24,5.29,33.16,0,9.16-13.86,0-19.15S269.54,200.1,260.38,205.39Z" style="fill:#fff;opacity:0.45"></path></g><g id="freepik--Pot--inject-18"><g style="opacity:0.05"><path d="M282.1,210.49c2.92,1.69,2.92,4.42,0,6.11a11.67,11.67,0,0,1-10.58,0c-2.92-1.69-2.92-4.42,0-6.11A11.73,11.73,0,0,1,282.1,210.49Z"></path></g><path d="M272.16,213.92c-2.55-2.59-4-9.08-1.56-11.13h12.63c2.48,2.05,1,8.53-1.56,11.13l-.07.07-.09.09-.23.2-.06.05a1.33,1.33,0,0,1-.19.14,3,3,0,0,1-.33.21,8.37,8.37,0,0,1-7.58,0h0a3,3,0,0,1-.33-.21l-.18-.13-.07-.06-.22-.2a.47.47,0,0,1-.1-.1S272.17,213.94,272.16,213.92Z" style="fill:#ebebeb"></path><path d="M282.13,202c2.88,1.66,2.88,4.36,0,6a11.54,11.54,0,0,1-10.43,0c-2.88-1.66-2.88-4.36,0-6A11.48,11.48,0,0,1,282.13,202Z" style="fill:#fafafa"></path><path d="M280.09,203.14c1.75,1,1.75,2.65,0,3.66a7,7,0,0,1-6.35,0c-1.75-1-1.75-2.65,0-3.66A7,7,0,0,1,280.09,203.14Z" style="fill:#ebebeb"></path><path d="M273.74,204.87a7,7,0,0,1,6.35,0,3.11,3.11,0,0,1,1.05,1,3,3,0,0,1-1.05,1,7,7,0,0,1-6.35,0,2.91,2.91,0,0,1-1.05-1A3,3,0,0,1,273.74,204.87Z" style="fill:#e0e0e0"></path><path d="M279.7,205.84a14.43,14.43,0,0,0,2.3-3.05c1.06-1.88,1.25-4.39.7-4.7s-2.78,2.19-2.78,2.19a13.64,13.64,0,0,0,.24-3.2c-.09-1.67-.5-3.18-1-3.49s-1.55,1.8-2,3.33-.73,2.78-.73,2.78a23.38,23.38,0,0,0-.82-3.51c-.56-1.59-1.06-1.95-1.45-1.79s-.65.9-.77,3a20.47,20.47,0,0,0,.1,3s-.79-.87-1.66-1.71-1.37-1-1.65-.87-.35,1.61,1.14,4.3a15,15,0,0,0,2.8,3.69S276.19,207.16,279.7,205.84Z" style="fill:#4756C2"></path><path d="M279.7,205.84a14.43,14.43,0,0,0,2.3-3.05c1.06-1.88,1.25-4.39.7-4.7s-2.78,2.19-2.78,2.19a13.64,13.64,0,0,0,.24-3.2c-.09-1.67-.5-3.18-1-3.49s-1.55,1.8-2,3.33-.73,2.78-.73,2.78a23.38,23.38,0,0,0-.82-3.51c-.56-1.59-1.06-1.95-1.45-1.79s-.65.9-.77,3a20.47,20.47,0,0,0,.1,3s-.79-.87-1.66-1.71-1.37-1-1.65-.87-.35,1.61,1.14,4.3a15,15,0,0,0,2.8,3.69S276.19,207.16,279.7,205.84Z" style="opacity:0.30000000000000004"></path></g></g></g><g id="freepik--plant-with-pot--inject-18"><path id="freepik--shadow--inject-18" d="M390.64,327.66c-5.42,3.13-5.42,8.2,0,11.33s14.2,3.12,19.61,0,5.42-8.2,0-11.33S396.06,324.53,390.64,327.66Z" style="opacity:0.1"></path><g id="freepik--pot--inject-18"><path d="M409.31,333.35c4.74-4.84,7.52-24.52,2.9-28.36H388.69c-4.63,3.84-1.85,23.51,2.89,28.35l.13.14a1.21,1.21,0,0,1,.16.16l.43.38.12.09.35.27c.21.14.41.27.62.39a15.61,15.61,0,0,0,14.12,0h0a7.07,7.07,0,0,0,.61-.4l.34-.25.14-.11c.14-.12.28-.24.41-.37l.19-.18Z" style="fill:#37474f"></path><path d="M390.73,303.45c-5.37,3.1-5.37,8.12,0,11.22s14.07,3.1,19.43,0,5.37-8.12,0-11.22S396.1,300.35,390.73,303.45Z" style="fill:#455a64"></path><path d="M393.31,304.94c-3.94,2.27-3.94,6,0,8.24a15.8,15.8,0,0,0,14.27,0c3.94-2.28,3.94-6,0-8.24A15.74,15.74,0,0,0,393.31,304.94Z" style="fill:#263238"></path><path d="M407.58,308.85a15.74,15.74,0,0,0-14.27,0A6.5,6.5,0,0,0,391,311a6.52,6.52,0,0,0,2.36,2.17,15.8,15.8,0,0,0,14.27,0,6.43,6.43,0,0,0,2.36-2.17A6.42,6.42,0,0,0,407.58,308.85Z" style="fill:#fafafa"></path><g id="freepik--plants--inject-18"><path d="M403.32,295a6.65,6.65,0,0,0,.32-1.86,4.2,4.2,0,0,0-1.95-3.84c-.53-.28-1.19-.45-1.48-1a2,2,0,0,1-.17-1,8.52,8.52,0,0,0-.32-3.81,4.27,4.27,0,0,0-2.75-2.12,12.78,12.78,0,0,0-3.55-.33,5.67,5.67,0,0,1-1.88-.22c-.74-.27-1.06-.9-1.57-1.42A12.19,12.19,0,0,0,388,278a6.6,6.6,0,0,0-4.78-1.19c-3.51.74-2.91,3.77-1.51,5.91s1.79,2.85,0,5.62-1.33,5.74,1.58,7,4.67,1.17,4.15,4.54c-.47,3-.65,5.54,2.5,8.16a8.72,8.72,0,0,0,7.49,2.12,11.86,11.86,0,0,0,3.28-1.36c.74-.53.09-1.06.23-1.9.31-1.8.61-3.6.92-5.39a37.13,37.13,0,0,1,.73-4.26C402.81,296.46,403.1,295.76,403.32,295Z" style="fill:#4756C2"></path><path d="M403.32,295a6.65,6.65,0,0,0,.32-1.86,4.2,4.2,0,0,0-1.95-3.84c-.53-.28-1.19-.45-1.48-1a2,2,0,0,1-.17-1,8.52,8.52,0,0,0-.32-3.81,4.27,4.27,0,0,0-2.75-2.12,12.78,12.78,0,0,0-3.55-.33,5.67,5.67,0,0,1-1.88-.22c-.74-.27-1.06-.9-1.57-1.42A12.19,12.19,0,0,0,388,278a6.6,6.6,0,0,0-4.78-1.19c-3.51.74-2.91,3.77-1.51,5.91s1.79,2.85,0,5.62-1.33,5.74,1.58,7,4.67,1.17,4.15,4.54c-.47,3-.65,5.54,2.5,8.16a8.72,8.72,0,0,0,7.49,2.12,11.86,11.86,0,0,0,3.28-1.36c.74-.53.09-1.06.23-1.9.31-1.8.61-3.6.92-5.39a37.13,37.13,0,0,1,.73-4.26C402.81,296.46,403.1,295.76,403.32,295Z" style="opacity:0.25"></path><path d="M395.44,292.64a.21.21,0,0,0-.06-.1c-.42-.74-.85-1.44-1.27-2.1a20.54,20.54,0,0,1,2-5.11A.27.27,0,0,0,396,285a.25.25,0,0,0-.36.09,20.56,20.56,0,0,0-1.95,4.79,37.07,37.07,0,0,0-7.19-8.19.26.26,0,0,0-.37.05.28.28,0,0,0,.06.38,38.26,38.26,0,0,1,8.33,10.08,43,43,0,0,0-8.77-1.77.26.26,0,0,0-.29.24.26.26,0,0,0,.24.29,40.79,40.79,0,0,1,9.25,2,45.88,45.88,0,0,1,5.43,15.65.24.24,0,0,0,.21.22h.09a.26.26,0,0,0,.22-.3A46.36,46.36,0,0,0,395.44,292.64Z" style="fill:#fff"></path><path d="M403.39,310.27a14.93,14.93,0,0,0,7.73-1c4.25-1.68,6.28-6.24,6.28-6.24s-5.09-1.12-7.9-.85a24.73,24.73,0,0,1,8.38-1.19s2.4-1.37,1.21-5.6c0,0-2.69-1.38-8.11.22a18,18,0,0,1,7.21-3.81c.38-.06-1.06-5.59-1.93-8s-1.95-2.91-3.9-2.37-7.38,3.86-7.89,5.42.82,5.12.82,5.12a8.45,8.45,0,0,1-2.41-4.54,13.16,13.16,0,0,0-3.09,2.41,7.92,7.92,0,0,0-1.68,3,16.27,16.27,0,0,0,3.59,6.24,9.1,9.1,0,0,1-4.48-4.78,12.34,12.34,0,0,0-1.19,7.23A10.48,10.48,0,0,0,403.39,310.27Z" style="fill:#4756C2"></path><path d="M403.39,310.27a14.93,14.93,0,0,0,7.73-1c4.25-1.68,6.28-6.24,6.28-6.24s-5.09-1.12-7.9-.85a24.73,24.73,0,0,1,8.38-1.19s2.4-1.37,1.21-5.6c0,0-2.69-1.38-8.11.22a18,18,0,0,1,7.21-3.81c.38-.06-1.06-5.59-1.93-8s-1.95-2.91-3.9-2.37-7.38,3.86-7.89,5.42.82,5.12.82,5.12a8.45,8.45,0,0,1-2.41-4.54,13.16,13.16,0,0,0-3.09,2.41,7.92,7.92,0,0,0-1.68,3,16.27,16.27,0,0,0,3.59,6.24,9.1,9.1,0,0,1-4.48-4.78,12.34,12.34,0,0,0-1.19,7.23A10.48,10.48,0,0,0,403.39,310.27Z" style="opacity:0.1"></path><path d="M402.75,310a.25.25,0,0,0,.12-.24c-.7-8.46,6.5-23,10.2-26.33a.26.26,0,0,0,0-.37.26.26,0,0,0-.36,0c-3.76,3.35-11.08,18.16-10.37,26.76a.26.26,0,0,0,.28.23A.23.23,0,0,0,402.75,310Z" style="fill:#fff"></path></g></g></g><g id="freepik--Chair--inject-18"><path id="freepik--shadow--inject-18" d="M200.22,335.34l-57.55-33.28a3.45,3.45,0,0,0-3.13,0l-53.2,30.72a1,1,0,0,0,0,1.81l57.54,33.27a3.45,3.45,0,0,0,3.13,0l4.34-2.5,28.92-16.7,19.95-11.52A1,1,0,0,0,200.22,335.34Z" style="opacity:0.1"></path><g id="freepik--chair--inject-18"><path d="M190.57,310.09h0a6.88,6.88,0,0,1-3.35,7.1l-39.17,20.42-.11,2.26-1.78,1,2.29,1.32,43.3-25.06Z" style="fill:#37474f"></path><path d="M149.67,352.18h0c-.25-3,.82-6,3.44-7.54l35.29-20.38a3.31,3.31,0,0,1,4.93,2.32h0L191,312.53h0a6.75,6.75,0,0,1-3.27,7l-36.54,21.12a1.75,1.75,0,0,1-2.74-1.44l-.19-1.93Z" style="fill:#455a64"></path><path d="M150.44,255.77l-10,5.78,42.68,27a11.33,11.33,0,0,1,5.14,7.72l6.21,40.25a.7.7,0,0,0,1,.49h0c.23-.14.37-.4.28-1.37l-3.55-42.77a11,11,0,0,0-4.2-7.25Z" style="fill:#455a64"></path><path d="M104.1,308.87l-.24.57a4.36,4.36,0,0,0,1.82,5.51L145,337.67l-1-5.89,1.48,8.83-44.11-25.54Z" style="fill:#263238"></path><path d="M104.1,308.87l-.09.41a3.29,3.29,0,0,0,4.68,4.18l1.68-1,2.23,1.29-9.17,5.3-2.91-1.94Z" style="fill:#263238"></path><path d="M146,338.23l-37.73-21.8a5.27,5.27,0,0,1-2.39-4.13v-2.22a5.25,5.25,0,0,1,2.39-4.13L146,284.16a5.27,5.27,0,0,1,4.77,0L188.51,306a5.24,5.24,0,0,1,2.38,4.13v2.25a5.26,5.26,0,0,1-2.38,4.13l-37.73,21.77A5.27,5.27,0,0,1,146,338.23Z" style="fill:#4756C2"></path><path d="M146,338.23l-37.73-21.8a5.27,5.27,0,0,1-2.39-4.13v-2.22a5.25,5.25,0,0,1,2.39-4.13L146,284.16a5.27,5.27,0,0,1,4.77,0L188.51,306a5.24,5.24,0,0,1,2.38,4.13v2.25a5.26,5.26,0,0,1-2.38,4.13l-37.73,21.77A5.27,5.27,0,0,1,146,338.23Z" style="opacity:0.2"></path><path d="M146.71,338.53a3.69,3.69,0,0,1-.7-.3l-37.73-21.8a5.27,5.27,0,0,1-2.39-4.13v-2.23a5.35,5.35,0,0,1,1.94-3.81c-.85.76-.7,1.78.45,2.44l37.55,21.68Z" style="fill:#4756C2"></path><path d="M190.9,310.07v2.26a5.27,5.27,0,0,1-2.39,4.13l-37.73,21.77a5.29,5.29,0,0,1-4.07.3l-.88-8.15.18.1a5.21,5.21,0,0,0,4.77,0l37.73-21.78c1.15-.66,1.3-1.68.45-2.44A5.35,5.35,0,0,1,190.9,310.07Z" style="fill:#4756C2"></path><path d="M159.43,291.91,121.7,313.69a4.89,4.89,0,0,1-2.8.55,3,3,0,0,1-.42,0h-.08l-.25-.05h0l-.37-.09a4,4,0,0,1-.81-.35L115,312.57a6.69,6.69,0,0,1-2.87-4.08l-5.61-30.9a3.81,3.81,0,0,1-.05-.59,1.93,1.93,0,0,1,0-.24,4.39,4.39,0,0,1,.26-1.17,4.21,4.21,0,0,1,1.26-1.8l.16-.12.25-.16,37.74-21.79a5.27,5.27,0,0,1,4.77,0l1.94,1.12a5.12,5.12,0,0,1,1.14.94,1.24,1.24,0,0,1,.19.21,6.37,6.37,0,0,1,.7.94,2.39,2.39,0,0,1,.13.21l.11.19c.06.1.1.19.15.28s.09.19.13.29l.09.23a.76.76,0,0,1,0,.11c0,.08.05.15.07.22a2.68,2.68,0,0,1,.07.27,1.46,1.46,0,0,1,.05.2l5.61,30.89A4.19,4.19,0,0,1,159.43,291.91Z" style="fill:#4756C2"></path><path d="M159.43,291.91,121.7,313.69a4.89,4.89,0,0,1-2.8.55,3,3,0,0,1-.42,0h-.08l-.25-.05h0l-.37-.09a4,4,0,0,1-.81-.35L115,312.57a6.69,6.69,0,0,1-2.87-4.08l-5.61-30.9a3.81,3.81,0,0,1-.05-.59,1.93,1.93,0,0,1,0-.24,4.39,4.39,0,0,1,.26-1.17,4.21,4.21,0,0,1,1.26-1.8l.16-.12.25-.16,37.74-21.79a5.27,5.27,0,0,1,4.77,0l1.94,1.12a5.12,5.12,0,0,1,1.14.94,1.24,1.24,0,0,1,.19.21,6.37,6.37,0,0,1,.7.94,2.39,2.39,0,0,1,.13.21l.11.19c.06.1.1.19.15.28s.09.19.13.29l.09.23a.76.76,0,0,1,0,.11c0,.08.05.15.07.22a2.68,2.68,0,0,1,.07.27,1.46,1.46,0,0,1,.05.2l5.61,30.89A4.19,4.19,0,0,1,159.43,291.91Z" style="opacity:0.2"></path><path d="M113.22,281.47l5.61,30.89a1.81,1.81,0,0,0,2.87,1.33l37.73-21.78a4.19,4.19,0,0,0,1.9-4.09l-5.61-30.89a1.81,1.81,0,0,0-2.87-1.33l-37.73,21.78A4.19,4.19,0,0,0,113.22,281.47Z" style="fill:#4756C2"></path><path d="M120.73,314.08a5.59,5.59,0,0,1-1.83.16,3,3,0,0,1-.42,0c-.11,0-.22,0-.33-.06h0l-.37-.09a4,4,0,0,1-.81-.35L115,312.57a6.69,6.69,0,0,1-2.87-4.08l-5.61-30.9a3.81,3.81,0,0,1-.05-.59,1.93,1.93,0,0,1,0-.24,4.39,4.39,0,0,1,.26-1.17l6.73,3.83a3.84,3.84,0,0,0-.24,2.05l5.61,30.89a1.78,1.78,0,0,0,1.89,1.66A.13.13,0,0,0,120.73,314.08Z" style="fill:#4756C2"></path><path d="M95.57,330.62l8.92-40.57,4.35,3.72L97.16,331.24a.86.86,0,0,1-.35.4h0A.86.86,0,0,1,95.57,330.62Z" style="fill:#37474f"></path><path d="M107.85,284.66,142.31,312a11.38,11.38,0,0,1,4.25,8l4.09,42.33a.69.69,0,0,1-.35.66h0a.69.69,0,0,1-1-.49l-6.75-39.81a11.36,11.36,0,0,0-5.13-7.72L108,296.35a9.51,9.51,0,0,1-.83-15.48Z" style="fill:#455a64"></path><path d="M103.49,310.94h0a5,5,0,0,0,1.83,6.38l35.18,20.31a2.75,2.75,0,0,0,4.08-2.83h0l2.7,15.94h0a9.72,9.72,0,0,0-4.64-6.71l-39.11-22.57a4,4,0,0,0-5.69,1.88h0Z" style="fill:#37474f"></path></g></g><g id="freepik--Mat--inject-18"><g id="freepik--mat--inject-18"><polygon points="386.97 349.05 250.31 427.9 174 384.08 310.67 305.24 386.97 349.05" style="fill:#4756C2"></polygon><polygon points="386.97 349.05 250.31 427.9 174 384.08 310.67 305.24 386.97 349.05" style="fill:#fff;opacity:0.7000000000000001"></polygon><polygon points="386.97 349.05 386.97 351.18 250.31 430.03 250.31 427.9 386.97 349.05" style="fill:#4756C2"></polygon><polygon points="386.97 349.05 386.97 351.18 250.31 430.03 250.31 427.9 386.97 349.05" style="fill:#fff;opacity:0.5"></polygon><polygon points="250.31 427.9 174 384.08 174 386.21 250.31 430.03 250.31 427.9" style="fill:#4756C2"></polygon><polygon points="250.31 427.9 174 384.08 174 386.21 250.31 430.03 250.31 427.9" style="fill:#fff;opacity:0.4"></polygon></g></g><g id="freepik--Device--inject-18"><g id="freepik--device--inject-18"><g id="freepik--shadow--inject-18"><path id="freepik--shadow--inject-18" d="M208,397.64l11.84-6.86a.27.27,0,0,0,0-.52l-21.73-12.55a1,1,0,0,0-.92,0l-11.84,6.85a.28.28,0,0,0,0,.53l21.74,12.55A1,1,0,0,0,208,397.64Z" style="fill:#4756C2"></path><path id="freepik--shadow--inject-18" d="M208,397.64l11.84-6.86a.27.27,0,0,0,0-.52l-21.73-12.55a1,1,0,0,0-.92,0l-11.84,6.85a.28.28,0,0,0,0,.53l21.74,12.55A1,1,0,0,0,208,397.64Z" style="opacity:0.1"></path></g><g id="freepik--device--inject-18"><g id="freepik--device--inject-18"><path d="M218.7,388.52c.16.12.14.3,0,.41L208.13,395a.87.87,0,0,1-.77,0l-20.1-11.6c-.2-.12-.21-.29,0-.42a.87.87,0,0,0-.34.64v.5a.85.85,0,0,0,.39.67l20.1,11.6a.87.87,0,0,0,.77,0l10.52-6.07a.84.84,0,0,0,.38-.66v-.51A.89.89,0,0,0,218.7,388.52Z" style="fill:#4756C2"></path><path d="M218.7,388.52c.16.12.14.3,0,.41L208.13,395a.87.87,0,0,1-.77,0l-20.1-11.6c-.2-.12-.21-.29,0-.42a.87.87,0,0,0-.34.64v.5a.85.85,0,0,0,.39.67l20.1,11.6a.87.87,0,0,0,.77,0l10.52-6.07a.84.84,0,0,0,.38-.66v-.51A.89.89,0,0,0,218.7,388.52Z" style="opacity:0.1"></path><path d="M218.65,388.49l-20.11-11.61a.85.85,0,0,0-.76,0L187.26,383c-.21.12-.21.32,0,.45l20.1,11.6a.87.87,0,0,0,.77,0l10.52-6.07A.23.23,0,0,0,218.65,388.49Zm-3-.79c.18.11.18.27,0,.38l-9.3,5.37a.74.74,0,0,1-.65,0l-15.66-9c-.18-.1-.18-.27,0-.38l9.31-5.37a.55.55,0,0,1,.55-.06Z" style="fill:#4756C2"></path><path d="M218.65,388.49l-20.11-11.61a.85.85,0,0,0-.76,0L187.26,383c-.21.12-.21.32,0,.45l20.1,11.6a.87.87,0,0,0,.77,0l10.52-6.07A.23.23,0,0,0,218.65,388.49Zm-3-.79c.18.11.18.27,0,.38l-9.3,5.37a.74.74,0,0,1-.65,0l-15.66-9c-.18-.1-.18-.27,0-.38l9.31-5.37a.55.55,0,0,1,.55-.06Z" style="opacity:0.2"></path><path d="M187.21,383a.87.87,0,0,0-.34.64v.5a.85.85,0,0,0,.39.67l20.1,11.6a.79.79,0,0,0,.38.09v-1.39a.79.79,0,0,1-.38-.09l-20.1-11.6C187.06,383.28,187.05,383.11,187.21,383Z" style="opacity:0.30000000000000004"></path><path d="M187.21,383a.87.87,0,0,0-.34.64v.5a.85.85,0,0,0,.39.67l20.1,11.6a.79.79,0,0,0,.38.09v-1.39a.79.79,0,0,1-.38-.09l-20.1-11.6C187.06,383.28,187.05,383.11,187.21,383Z" style="fill:#4756C2"></path><path d="M193.53,380.51a.15.15,0,0,0,0-.29.59.59,0,0,0-.52,0,.15.15,0,0,0,0,.29A.59.59,0,0,0,193.53,380.51Z" style="fill:#455a64"></path><path d="M212.39,391.82a1.3,1.3,0,0,1-.63-.15.5.5,0,0,1-.27-.4.47.47,0,0,1,.27-.39,1.4,1.4,0,0,1,1.26,0,.47.47,0,0,1,.28.39.49.49,0,0,1-.28.4h0A1.28,1.28,0,0,1,212.39,391.82Zm0-1a1.21,1.21,0,0,0-.58.14.37.37,0,0,0-.22.3.39.39,0,0,0,.22.31,1.31,1.31,0,0,0,1.16,0h0c.15-.09.23-.19.23-.31a.37.37,0,0,0-.23-.3A1.21,1.21,0,0,0,212.39,390.83Z" style="fill:#455a64"></path><path d="M193.27,381.5l2-1.15c.12-.07.13-.17,0-.24a.48.48,0,0,0-.42,0l-2,1.14c-.12.07-.12.18,0,.24A.46.46,0,0,0,193.27,381.5Z" style="fill:#455a64"></path><path d="M199.9,378.6a.55.55,0,0,0-.55.06L190,384c-.18.11-.18.28,0,.38l15.66,9a.74.74,0,0,0,.65,0l9.3-5.37c.19-.11.19-.27,0-.38Z" style="fill:#4756C2"></path><path d="M199.9,378.6a.55.55,0,0,0-.55.06L190,384c-.18.11-.18.28,0,.38l15.66,9a.74.74,0,0,0,.65,0l9.3-5.37c.19-.11.19-.27,0-.38Z" style="opacity:0.45"></path><path d="M198.41,387.3a.11.11,0,0,1-.08,0,.05.05,0,0,1,0,0l.16-.76a.43.43,0,0,1,0,0,.08.08,0,0,1,.05-.05l.26-.15a.13.13,0,0,1,.09,0s.07,0,.09,0l2.18,1.25a.07.07,0,0,1,0,.06.05.05,0,0,1,0,.05l-.27.16-.09,0-.09,0-1.67-1-.1.49a.08.08,0,0,1,0,.05h-.1Z" style="fill:#fff"></path><path d="M200.39,386.05a.13.13,0,0,1,.09,0s.07,0,.09,0l.33.19a.05.05,0,0,1,0,.05.07.07,0,0,1,0,.06l-.31.18-.09,0-.09,0-.33-.2a.05.05,0,0,1,0-.1Zm1.18.68.09,0,.09,0,.33.19s0,0,0,.05,0,0,0,.06l-.31.18-.09,0-.09,0-.33-.19s0,0,0-.06,0,0,0,0Z" style="fill:#fff"></path><path d="M202.91,384.84l.15.08.16.09.16.09.13.08a1.35,1.35,0,0,1,.31.25.43.43,0,0,1,.13.25.35.35,0,0,1-.08.28,1.21,1.21,0,0,1-.35.28,2.13,2.13,0,0,1-.48.2,1.93,1.93,0,0,1-.47.05,2.23,2.23,0,0,1-.45-.08l-.42-.18-.3-.16-.28-.18a1.33,1.33,0,0,1-.31-.24.48.48,0,0,1-.14-.26.36.36,0,0,1,.08-.27,1,1,0,0,1,.34-.29,2.2,2.2,0,0,1,.49-.2,1.88,1.88,0,0,1,.47-.05,2.14,2.14,0,0,1,.44.08A2.65,2.65,0,0,1,202.91,384.84Zm-.77,1.12a1.25,1.25,0,0,0,.49.15.83.83,0,0,0,.47-.12c.16-.09.23-.18.2-.27s-.11-.18-.26-.28l-.27-.17-.29-.16a1.29,1.29,0,0,0-.5-.15.8.8,0,0,0-.46.12q-.24.14-.21.27c0,.09.11.18.26.28l.28.17Z" style="fill:#fff"></path><path d="M205.12,383.57l.14.08.16.09.16.09.14.08a1.53,1.53,0,0,1,.3.25.49.49,0,0,1,.14.25.37.37,0,0,1-.09.27,1.14,1.14,0,0,1-.34.29,2.41,2.41,0,0,1-.49.2,1.91,1.91,0,0,1-.47,0,1.76,1.76,0,0,1-.45-.07l-.42-.18-.3-.16-.28-.18a1.67,1.67,0,0,1-.31-.24.48.48,0,0,1-.14-.26.36.36,0,0,1,.08-.27,1,1,0,0,1,.34-.29,2.2,2.2,0,0,1,.49-.2,1.93,1.93,0,0,1,.47-.05,1.63,1.63,0,0,1,.44.08A2.3,2.3,0,0,1,205.12,383.57Zm-.78,1.12a1.25,1.25,0,0,0,.49.15.83.83,0,0,0,.47-.12c.16-.09.23-.18.2-.27a.57.57,0,0,0-.25-.28L205,384l-.29-.16a1.24,1.24,0,0,0-.5-.15.8.8,0,0,0-.46.12q-.24.13-.21.27a.6.6,0,0,0,.26.28l.28.17Z" style="fill:#fff"></path></g><path d="M191.15,384.53l-.11-.06a0,0,0,0,1,0,0h.09l.11.06a0,0,0,0,1,0,0h0A.11.11,0,0,1,191.15,384.53Z" style="fill:#fff"></path><path d="M191.33,384.43l-.18-.11a0,0,0,0,1,0,0h.09l.18.1s0,0,0,.05h-.09Z" style="fill:#fff"></path><path d="M191.51,384.32l-.25-.14s0,0,0-.05h.09l.25.15a0,0,0,0,1,0,0h-.09Z" style="fill:#fff"></path><path d="M191.69,384.22l-.43-.25s0,0,0-.05h0a.11.11,0,0,1,.08,0l.43.25s0,0,0,0h-.09Z" style="fill:#fff"></path><path d="M192.21,384h0l-.06,0-.21.11h0l0,0h0v-.25h0l0,0h.05l.22.13,0,0h.06l0,0,.06,0s0,0,0,0h0l0,0Zm-.12-.08-.16-.09V384Z" style="fill:#fff"></path><path d="M192.42,383.79a.46.46,0,0,1-.21-.05q-.09-.06-.09-.12c0-.05,0-.09.12-.13l.09,0,.08,0h0v0h0a.29.29,0,0,0-.13,0,.13.13,0,0,0-.08.08s0,.06.07.09a.28.28,0,0,0,.15,0,.42.42,0,0,0,.15,0s0,0,0,0l0,0-.1-.06-.09.05h-.06s0,0,0,0l.14-.07h.05l.14.09h0a.33.33,0,0,1-.12.11A.7.7,0,0,1,192.42,383.79Z" style="fill:#fff"></path><path d="M195.24,381.8l.24.14h.07l.24-.14a0,0,0,0,0,0,0l-.24-.13h-.07l-.24.13S195.22,381.79,195.24,381.8Z" style="fill:#fff"></path><path d="M195.41,381.61l-.11,0-.1,0s0,.07,0,.1l.08.05h.06l-.08-.05a0,0,0,0,1,0-.07l0,0,0,0,.08,0h.06Z" style="fill:#fff"></path><path d="M199.79,379.08a.21.21,0,0,0-.12,0l-.61.35a.06.06,0,0,0,0,.11l.23.13.11,0h.06l.06,0,.61-.36c.05,0,.05-.07,0-.11l-.22-.12A.21.21,0,0,0,199.79,379.08Zm-.39.62-.05,0-.22-.13a0,0,0,0,1,0-.08l.61-.35h.1l.22.13a0,0,0,0,1,0,.08l-.61.35Z" style="fill:#fff"></path><path d="M199.42,379.65h0l-.2-.12s0,0,0-.06l.55-.32h0l.2.12s0,0,0,.06l-.55.32Z" style="fill:#fff"></path><path d="M199.94,379.09a.2.2,0,0,1,.12,0l0,0c.05,0,.07.06.05.07l0,0-.21-.13Z" style="fill:#fff"></path></g><path d="M198.14,374.42a.5.5,0,0,1-.5-.5V369.2a.5.5,0,1,1,1,0v4.72A.5.5,0,0,1,198.14,374.42Z" style="fill:#455a64"></path><path d="M193.86,376.33a.49.49,0,0,1-.41-.21l-2.77-3.82a.5.5,0,0,1,.11-.7.51.51,0,0,1,.7.11l2.77,3.82a.51.51,0,0,1-.11.7A.46.46,0,0,1,193.86,376.33Z" style="fill:#455a64"></path><path d="M202.42,376.33a.46.46,0,0,1-.29-.1.51.51,0,0,1-.11-.7l2.77-3.82a.51.51,0,0,1,.7-.11.49.49,0,0,1,.11.7l-2.77,3.82A.49.49,0,0,1,202.42,376.33Z" style="fill:#455a64"></path></g></g><g id="freepik--Dumbbell--inject-18"><g id="freepik--dumbbell--inject-18"><g id="freepik--shadow--inject-18"><path id="freepik--shadow--inject-18" d="M324.81,373.79,323.4,373a1.05,1.05,0,0,1,0-2l3.13-1.81-9.78-5.65-3.13,1.8a3.81,3.81,0,0,1-3.45,0l-1.41-.81a1.05,1.05,0,0,1,0-2l9.51-5.49a3.81,3.81,0,0,1,3.45,0l1.41.81a1.06,1.06,0,0,1,0,2l-3.46,2,9.78,5.66,3.46-2a3.81,3.81,0,0,1,3.45,0l1.41.81a1.06,1.06,0,0,1,0,2l-9.51,5.49A3.81,3.81,0,0,1,324.81,373.79Z" style="fill:#4756C2"></path><path id="freepik--shadow--inject-18" d="M324.81,373.79,323.4,373a1.05,1.05,0,0,1,0-2l3.13-1.81-9.78-5.65-3.13,1.8a3.81,3.81,0,0,1-3.45,0l-1.41-.81a1.05,1.05,0,0,1,0-2l9.51-5.49a3.81,3.81,0,0,1,3.45,0l1.41.81a1.06,1.06,0,0,1,0,2l-3.46,2,9.78,5.66,3.46-2a3.81,3.81,0,0,1,3.45,0l1.41.81a1.06,1.06,0,0,1,0,2l-9.51,5.49A3.81,3.81,0,0,1,324.81,373.79Z" style="opacity:0.1"></path></g><path d="M320,354.61v0a4.92,4.92,0,0,0-7.42-4.25l0,0-.12.08-.13.08a10,10,0,0,0-4.22,7.59v.06a3.39,3.39,0,0,0,0,.45h0a4.93,4.93,0,0,0,4.9,4.47,4.77,4.77,0,0,0,1.08-.13,4.42,4.42,0,0,0,1.45-.55,9.91,9.91,0,0,0,4.48-7.75Z" style="fill:#455a64"></path><path d="M315.5,352.08a9.87,9.87,0,0,0-4.47,7.75c0,2.85,2,4,4.47,2.58a9.91,9.91,0,0,0,4.48-7.75C320,351.81,318,350.65,315.5,352.08Z" style="fill:#37474f"></path><path d="M329.11,361.74h0l0,0-11.49-6.66h0a1.41,1.41,0,0,0-1.5.11,4.56,4.56,0,0,0-2.06,3.57,1.43,1.43,0,0,0,.63,1.35l11.5,6.66h0a1.4,1.4,0,0,0,1.48-.12,4.56,4.56,0,0,0,2.06-3.57A1.45,1.45,0,0,0,329.11,361.74Z" style="fill:#263238"></path><path d="M325.57,365.44c0,1.31.92,1.85,2.06,1.19a4.56,4.56,0,0,0,2.06-3.57c0-1.32-.92-1.85-2.06-1.2A4.56,4.56,0,0,0,325.57,365.44Z" style="fill:#455a64"></path><path d="M334.89,363.22v0a4.93,4.93,0,0,0-4.92-4.93,4.81,4.81,0,0,0-2.5.69h0l-.12.08-.14.08a10,10,0,0,0-4.22,7.59v.06c0,.15,0,.3,0,.45h0a4.93,4.93,0,0,0,4.91,4.47,4.84,4.84,0,0,0,1.08-.13,4.59,4.59,0,0,0,1.45-.55,9.9,9.9,0,0,0,4.47-7.75Z" style="fill:#455a64"></path><path d="M330.42,360.69a9.88,9.88,0,0,0-4.48,7.75c0,2.85,2,4,4.48,2.58a9.9,9.9,0,0,0,4.47-7.75C334.89,360.42,332.89,359.26,330.42,360.69Z" style="fill:#37474f"></path></g></g><g id="freepik--Character--inject-18"><g id="freepik--character--inject-18"><path id="freepik--shadow--inject-18" d="M220,370.26c.92,2.9,5.79,6.05,10.47,7.15a208.79,208.79,0,0,0,24.34,4.26c12.6,1.64,27.14,4.12,27.14,4.12s-34.85,1.33-40.6,3.35-7.66,5-7.2,7.39,4.3,1.38,9.2.31,11.89-.59,23.05-.41,15.34-.33,25.94-1.77,15-5.63,15.88-8.25,1.61-5.69-7.09-12.39c-9.62-7.4-17.45-13.56-35.19-15.88s-37,2.58-42.24,4.88S219.6,368.86,220,370.26Z" style="opacity:0.1"></path><path d="M264.49,384.66a3,3,0,0,1-2.86-1.88,3.19,3.19,0,0,0-3.88-2c-2.95.67-2.67,2-5.26,3.53s-4.7,1-7.4,1.3-6.17,2.31-7.28,4.69-.71,4.63.82,4.55,3.32-1.8,5.4-1.85,6.86.31,11,.35,9.77-.79,11.3-.81S267.78,385.76,264.49,384.66Z" style="fill:#ffa8a7"></path><path d="M280.49,351.35c3,2.54,13.12,11.78,17.12,16.22s8.37,11.09,8.48,13.37-1.45,5.8-3.88,7.06-8.28,2.64-16.64,3.61-19.27,1-19.27,1a15.69,15.69,0,0,0-1.81-7.92,44.82,44.82,0,0,0,5.91-1.57c4-1.28,10.69-4.11,12.81-4.83l-12.77-6.35a13.51,13.51,0,0,1-3.78-1.22Z" style="fill:#37474f"></path><path d="M298.13,379.26c-2.71-1.75-5.68-3.15-14.92-1l-2.41-1.19s5.66-2.34,10.83-1.18S298.13,379.26,298.13,379.26Z" style="fill:#263238"></path><path d="M231.29,333.89a3.64,3.64,0,0,1,1.28-3.52,3.17,3.17,0,0,0,1.41-4.11c-1.06-2.83-2.36-2.37-4.22-4.73s-1.62-4.52-2.29-7.15-3.12-5.79-5.63-6.57-4.69-.07-4.41,1.43,2.24,3.05,2.58,5.09,0,7.14.52,11.21,2.2,6.81,2.39,10.12C223,337.19,230.65,337.3,231.29,333.89Z" style="fill:#ffa8a7"></path><path d="M230.72,322.57a9.19,9.19,0,0,1-1-1c-1.85-2.36-1.62-4.52-2.29-7.15a11,11,0,0,0-3.6-5.44c-.18.84-.35,1.69-.51,2.58-.39,2.06-1,4.86-1.24,6.21a26.39,26.39,0,0,1-1.82,5.17c0,.9.12,1.79.23,2.64.41,3.28,1.57,5.69,2.12,8.23,0-.52,1.3,3.21,1.19,2.19-.85-7.69,4.14-11.49,4.14-11.49.86.85,1.67,2.88,2.22,3.45a2.08,2.08,0,0,0,2.74.51c.34-.28-.48-.91-.93-2.64A14.22,14.22,0,0,0,230.72,322.57Z" style="fill:#f28f8f"></path><path d="M230.31,322.16c-.18-.19-.36-.39-.55-.63-1.85-2.36-1.62-4.52-2.29-7.15a10.71,10.71,0,0,0-4.51-6.06c-.13.66-.26,1.33-.39,2-.39,2-.65,5.68-.95,7a38.91,38.91,0,0,1-1.35,5,16.55,16.55,0,0,0,.26,3.17,30.09,30.09,0,0,0,1.38,5.54c0-.21,0-.42,0-.67.09-3.43,5.27-7.11,5.27-7.11.86.84,1.66,2.88,2.22,3.45a2.08,2.08,0,0,0,2.74.51c.34-.28-.48-.91-.93-2.64A12.7,12.7,0,0,0,230.31,322.16Z" style="fill:#f28f8f"></path><path d="M258.5,346.74l-.12.63s2.39,3.14,10.53,2.32,10.56-5,10.56-5l.07-.62a.76.76,0,0,1,.42.59c0,.42,1.18,7.73-.25,12.54s-7.84,13.64-17.51,14.49a57.85,57.85,0,0,1-13.55,2.67,70.8,70.8,0,0,1-18.89-1c-3.61-.82-7-2.58-8-5.16s-1.1-3.87-1.38-9.41,2.35-25.73,2.35-25.73a8.92,8.92,0,0,0,5.14,1.59c3.07,0,3.4-.76,3.4-.76s.32,2.92,1.33,7.66,3.13,10.86,2.35,16a81.94,81.94,0,0,0,8.22-.83c4.3-.66,5.19-1.39,5.19-1.39a7.23,7.23,0,0,1,2.72-3.56c2.26-1.56,4-2.13,5.14-2.91C257.64,347.86,257.93,346.46,258.5,346.74Z" style="fill:#455a64"></path><path d="M266.6,369.37a17.86,17.86,0,0,0,1.16-3.63s-2.27,4.45-5.56,5.93a18.05,18.05,0,0,0,6.66-2S266,370.48,266.6,369.37Z" style="fill:#263238"></path><path d="M235,357.51c-.49,3.27-2.4,6-7.76,6.64a7.93,7.93,0,0,0,6.57-1.47,6.5,6.5,0,0,0,2.74-5.25Z" style="fill:#263238"></path><path d="M310,337.79c1.77.19,4.94,1.62,7.64,1.66a29.36,29.36,0,0,0,8-1.39.9.9,0,0,0,.37-.17.62.62,0,0,0-.09-.9,1.76,1.76,0,0,0-.95-.31c-1.05-.1-2.1-.17-3.15-.2a14.56,14.56,0,0,1-1.62,0c-.14,0-.89-.25-.44-.48a14.41,14.41,0,0,1,6.9-1.28c3,.26,3.95,0,3.73-1.08-.27-1.42-1.23-2.29-2.66-3.32s-4.11-1.48-7.4-.76a48.75,48.75,0,0,1-6.66,1.36c-1.78.08-3.35-.34-7.7-1.19s-11-2.91-11-2.91-14.7-8.88-18.64-11c-3.78-2-7.33-1.77-10.17-1.39l9,13.3s7.62,3.8,14.14,6.39c2.14.86,3.11,1.55,5.66,1.85C302.75,336.82,307.56,337.51,310,337.79Z" style="fill:#ffa8a7"></path><path d="M266.32,291.94c-.53-1.88-2.36-2.59-3.64-1.69,0,0,2.19-3.08-.56-5.14s-6.2.17-6.72,1.62c0,0-1-2.22-5.15-2.16s-6.94,5.6-6.67,8.85c0,0-4.37,2.06-4.05,8.35a11.89,11.89,0,0,0,4.44,9.07c-4,3.1-7.94,10.27-8,15.61-.06,5.55.75,8.66,2.91,11.56s4.06,4.89,4.56,6.62,2.71-1.17,2.81-3.89a13.37,13.37,0,0,0-1.15-5.67,9.1,9.1,0,0,1,2.79,2.16c.74,1.12,1.63-1.11.6-3.32s-2.84-3.05-4.07-5.68a15.05,15.05,0,0,1-.92-11.44c.86-2.86,1.4-4.39,1.66-5.1a11.93,11.93,0,0,0,2.33,1.13c2.09.73,5.72,1.6,5.72,1.6l10.88-18.83A2.94,2.94,0,0,0,266.32,291.94Z" style="fill:#37474f"></path><path d="M279.37,336.17a32,32,0,0,1-.12,10s-2.15,5.09-11,5.31S258,348.17,258,348.17s.95-1,.32-4.14C257.58,340.46,279.37,336.17,279.37,336.17Z" style="fill:#ffa8a7"></path><path d="M252.09,318.11c4.19-1.46,13.14-4.16,15.37-3.66s8.89,4.78,11.65,7.34a6.09,6.09,0,0,1-.39,9.14s.81,5.17,1,6.87a26.57,26.57,0,0,1-11.65,5.74c-7.52,1.74-9.82.49-9.82.49a20.41,20.41,0,0,0-3.93-7c-2.8-3.12-3.59-5.18-6-8S252.09,318.11,252.09,318.11Z" style="fill:#4756C2"></path><path d="M262.55,334.75c2.35,1.27,9.2.61,10-3.92a5,5,0,0,1-3.54,5A6.45,6.45,0,0,1,262.55,334.75Z" style="opacity:0.15"></path><path d="M251.12,293.82c1.29,1,5.93,3.34,12.47.88a24.07,24.07,0,0,1,2.43,5.13c2.27,6.06,1.18,8.31.37,9.18S265,310.06,263,310.6l1.51,3.89s7.09,6.14,4.58,8.53a15.64,15.64,0,0,1-14.29-5l-3.42-7.72s-.64,1.52-3.22.79c-2.13-.6-3.63-2.56-3-4.27a3,3,0,0,1,4.65-1.1s2.74.55,0-4.84a8.07,8.07,0,0,0,1.69-2.63C252.18,296.14,251.93,294.83,251.12,293.82Z" style="fill:#ffa8a7"></path><path d="M263,310.6c-5.35,1.14-8.49,1-9.82-.28a6.94,6.94,0,0,0,2.91,1.84c1.66.45,7.35-.42,7.35-.42Z" style="fill:#f28f8f"></path><path d="M256.93,300.13a1,1,0,0,1-.4,1.27.91.91,0,0,1-1.26-.32.94.94,0,0,1,.4-1.27A.9.9,0,0,1,256.93,300.13Z"></path><path d="M258.89,305.29l3.4.47a1.7,1.7,0,0,1-1.92,1.46A1.73,1.73,0,0,1,258.89,305.29Z" style="fill:#b16668"></path><path d="M259,306.23a1.2,1.2,0,0,1,.72-.35A1.22,1.22,0,0,1,261.1,307a1.2,1.2,0,0,1,0,.19,1.77,1.77,0,0,1-.73.06A1.74,1.74,0,0,1,259,306.23Z" style="fill:#f28f8f"></path><path d="M254.85,297.25l-1.46,1.57a1,1,0,0,1-.1-1.45A1.17,1.17,0,0,1,254.85,297.25Z"></path><path d="M263.7,297.05a.89.89,0,0,1-.34,1.22.92.92,0,0,1-1.24-.36.89.89,0,0,1,.34-1.22A.94.94,0,0,1,263.7,297.05Z"></path><polygon points="259.48 298.38 261.64 303.03 264.14 300.98 259.48 298.38" style="fill:#f28f8f"></polygon><path d="M222.83,330.65c.08-3.43,5.26-7.11,5.26-7.11.86.84,1.67,2.88,2.22,3.45a2.08,2.08,0,0,0,2.74.51c.34-.28-.48-.91-.92-2.64-.58-2.21-1.44-3.28-2.47-5.58-.38-.84-.16-2.72.31-4.41a31.62,31.62,0,0,1,3-6.24c4.62,6.27,10.25,14.4,15.47,20.43,4.79.83,6.48-1.11,4.53-9.54a271.39,271.39,0,0,0-17-24.15c-1.93-2.43-6.3-3.44-8.55.57-2,3.51-2.79,8.43-4,14.65-.39,2.05-.94,4.86-1.24,6.21-.66,3.05-1.34,3.69-2,5.57-1.15,3.54-.68,11.33,2.3,12.07l.18-1.38C222.77,332.5,222.8,331.83,222.83,330.65Z" style="fill:#ffa8a7"></path><path d="M230,300.6a13.08,13.08,0,0,0,2.24,9.23h0c.26-.47.51-.88.71-1.2C231.18,306.53,229.83,302.31,230,300.6Z" style="fill:#f28f8f"></path></g></g></svg>