<svg xmlns="http://www.w3.org/2000/svg" viewBox="0 0 500 500"><g id="freepik--Floor--inject-7"><ellipse id="freepik--Grass--inject-7" cx="249.21" cy="342.11" rx="225.07" ry="129.94" style="fill:#1E52D0"></ellipse><ellipse id="freepik--grass--inject-7" cx="249.21" cy="342.11" rx="225.07" ry="129.94" style="opacity:0.30000000000000004"></ellipse><path id="freepik--Road--inject-7" d="M90.07,250.22c-36.26,20.94-57.54,47.23-63.89,74.47L279.37,470.88c47.18-3.67,92.73-16,129-36.89a182.25,182.25,0,0,0,28.77-20.33l-311.87-180A245.83,245.83,0,0,0,90.07,250.22Z" style="fill:#1E52D0"></path><path id="freepik--road--inject-7" d="M90.07,250.22c-36.26,20.94-57.54,47.23-63.89,74.47L279.37,470.88c47.18-3.67,92.73-16,129-36.89a182.25,182.25,0,0,0,28.77-20.33l-311.87-180A245.83,245.83,0,0,0,90.07,250.22Z" style="fill:#fff;opacity:0.5"></path></g><g id="freepik--Shadows--inject-7"><ellipse id="freepik--Shadow--inject-7" cx="225.49" cy="360.91" rx="64.95" ry="37.5" style="opacity:0.1"></ellipse><ellipse id="freepik--shadow--inject-7" cx="383.92" cy="299.84" rx="57.89" ry="33.42" style="opacity:0.1"></ellipse></g><g id="freepik--Heart--inject-7"><g id="freepik--heart--inject-7"><path d="M141.56,73.27v0l-.06-.06a7.48,7.48,0,0,0-1.12-.82c-1.42-.84-7.81-4.51-8.14-4.72-3.38-2.14-8.73-1.67-13.51.74-6.82,3.45-12.51,10.74-16.86,22.86,0,0-4.39-3.15-5.82-3.94-3.53-1.93-7.65-1-12.3,2-5.24,3.41-8.81,7.83-12.07,14.52l-.06.12h0a43.45,43.45,0,0,0-4.53,18.24c-.05,14,5.74,20.72,13.21,25.74,2.13,1.43,7.77,4.46,8.33,4.83a47.32,47.32,0,0,0,14.74,6.45l7.37,1.72,7.36-10.22a240.6,240.6,0,0,0,14.74-23.47c7.47-13.65,13.26-27,13.21-41C146.06,80.28,144.34,75.82,141.56,73.27Z" style="fill:#1E52D0"></path><path d="M141.56,73.27v0l-.06-.06a7.48,7.48,0,0,0-1.12-.82c-1.42-.84-7.81-4.51-8.14-4.72-3.38-2.14-8.73-1.67-13.51.74-6.82,3.45-12.51,10.74-16.86,22.86,0,0-4.39-3.15-5.82-3.94-3.53-1.93-7.65-1-12.3,2-5.24,3.41-8.81,7.83-12.07,14.52l-.06.12h0a43.45,43.45,0,0,0-4.53,18.24c-.05,14,5.74,20.72,13.21,25.74,2.13,1.43,7.77,4.46,8.33,4.83a47.32,47.32,0,0,0,14.74,6.45l7.37,1.72,7.36-10.22a240.6,240.6,0,0,0,14.74-23.47c7.47-13.65,13.26-27,13.21-41C146.06,80.28,144.34,75.82,141.56,73.27Z" style="opacity:0.30000000000000004"></path><path d="M141.56,73.27v0l-.06-.06a7.48,7.48,0,0,0-1.12-.82c-1.42-.84-7.81-4.51-8.14-4.72-3.38-2.14-8.73-1.67-13.51.74-6.83,3.45-12.51,10.74-16.86,22.86,0,0-4.39-3.15-5.82-3.94-3.53-1.93-7.65-1-12.3,2-5.24,3.41-8.81,7.83-12.07,14.52l-.06.12h0l-.39.87,55.87,32.26c2-3.21,3.91-6.48,5.75-9.84,7.47-13.65,13.26-27,13.21-41C146.06,80.28,144.34,75.82,141.56,73.27Z" style="fill:#1E52D0"></path><path d="M141.56,73.27v0l-.06-.06a7.48,7.48,0,0,0-1.12-.82c-1.42-.84-7.81-4.51-8.14-4.72-3.38-2.14-8.73-1.67-13.51.74-6.83,3.45-12.51,10.74-16.86,22.86,0,0-4.39-3.15-5.82-3.94-3.53-1.93-7.65-1-12.3,2-5.24,3.41-8.81,7.83-12.07,14.52l-.06.12h0l-.39.87,55.87,32.26c2-3.21,3.91-6.48,5.75-9.84,7.47-13.65,13.26-27,13.21-41C146.06,80.28,144.34,75.82,141.56,73.27Z" style="opacity:0.15"></path><path d="M101.88,91.25h0l7.49,9.76,12.06-14.27L107.8,78.87A60.86,60.86,0,0,0,101.88,91.25Z" style="fill:#1E52D0"></path><path d="M101.88,91.25h0l7.49,9.76,12.06-14.27L107.8,78.87A60.86,60.86,0,0,0,101.88,91.25Z" style="opacity:0.30000000000000004"></path><path d="M141.56,73.27v0l-.06-.06c-3.26-2.92-9.2-2.61-14.44,0C119.91,76.84,114,84.67,109.58,97.9c-4.42-8.12-10.33-8.38-17.49-3.73C86.85,97.58,83.28,102,80,108.69l-.06.13h0a43.39,43.39,0,0,0-4.51,18.25c0,14,5.74,20.71,13.21,25.73a47.32,47.32,0,0,0,14.74,6.45l7.37,1.72,7.36-10.22a242.53,242.53,0,0,0,14.74-23.47c7.47-13.65,13.26-27,13.21-41C146.06,80.28,144.34,75.82,141.56,73.27Z" style="fill:#1E52D0"></path><g style="opacity:0.07"><path d="M135.27,71.83A8.49,8.49,0,0,1,141,73.65l.13.15c2.74,2.51,4.27,7,4.29,12.49,0,14.59-6.61,28.74-13.13,40.65a239.89,239.89,0,0,1-14.69,23.39l-7.08,9.84-6.89-1.61a46.69,46.69,0,0,1-14.52-6.35c-6.73-4.52-13-10.7-12.9-25.14a42.85,42.85,0,0,1,4.45-17.95l0-.12c3.28-6.72,6.81-11,11.82-14.23,3-2,5.64-2.93,8-2.93,3.39,0,6.17,2.1,8.51,6.4a.72.72,0,0,0,.63.37h.06a.73.73,0,0,0,.61-.48c4.23-12.64,9.83-20.58,17.14-24.27a18,18,0,0,1,7.88-2m0-.71a18.66,18.66,0,0,0-8.2,2.1C119.91,76.84,114,84.67,109.58,97.9c-2.56-4.71-5.62-6.77-9.14-6.77-2.55,0-5.34,1.09-8.35,3C86.85,97.58,83.28,102,80,108.69l-.06.13a43.39,43.39,0,0,0-4.51,18.25c0,14,5.74,20.71,13.21,25.73a47.32,47.32,0,0,0,14.74,6.45l7.37,1.72,7.36-10.22a240.6,240.6,0,0,0,14.74-23.47c7.47-13.65,13.26-27,13.21-41,0-6-1.74-10.47-4.52-13v0l-.06-.06a9.17,9.17,0,0,0-6.24-2.07Z"></path></g><path d="M140.75,111l-14.34,8.27-5.27-19.37a1.37,1.37,0,0,0-2.65.07l-8.3,37.9-7-19.1a1.36,1.36,0,0,0-2.59.1L95.9,135.61l-15.77,9.11a25.58,25.58,0,0,0,1.68,2.17l15.94-9.2a1.36,1.36,0,0,0,.62-.81l3.73-13.22,7.14,19.53a1.32,1.32,0,0,0,1.37.89,1.36,1.36,0,0,0,1.24-1.07L120,106l4.28,15.72a1.36,1.36,0,0,0,2,.83L139,115.16C139.6,113.77,140.19,112.38,140.75,111Z" style="fill:#fff"></path></g></g><g id="freepik--Tree--inject-7"><g id="freepik--Pine--inject-7"><path d="M373.09,158.56v138c0,1.66,1.09,3.31,3.28,4.58a17.56,17.56,0,0,0,15.85,0c2.18-1.27,3.28-2.92,3.28-4.58v-138Z" style="fill:#b16668"></path><path d="M458.54,230,389.13,62.34h-9.67L310,230a8.88,8.88,0,0,0,6.47,12.1l1.13.22a8.86,8.86,0,0,1,7.08,9.8h0a8.87,8.87,0,0,0,11.41,9.58l3.43-1.06a8.88,8.88,0,0,1,10.69,4.82l3.45,7.61a8.86,8.86,0,0,0,12.6,4l13.47-8a8.89,8.89,0,0,1,9.05,0l13.46,8a8.87,8.87,0,0,0,12.61-4l3.45-7.61A8.86,8.86,0,0,1,429,260.62l3.43,1.06a8.87,8.87,0,0,0,11.41-9.58h0a8.87,8.87,0,0,1,7.07-9.8l1.14-.23A8.87,8.87,0,0,0,458.54,230Z" style="fill:#1E52D0"></path><path d="M458.54,230,389.13,62.34h-9.67L310,230a8.88,8.88,0,0,0,6.47,12.1l1.13.22a8.86,8.86,0,0,1,7.08,9.8h0a8.87,8.87,0,0,0,11.41,9.58l3.43-1.06a8.88,8.88,0,0,1,10.69,4.82l3.45,7.61a8.86,8.86,0,0,0,12.6,4l13.47-8a8.89,8.89,0,0,1,9.05,0l13.46,8a8.87,8.87,0,0,0,12.61-4l3.45-7.61A8.86,8.86,0,0,1,429,260.62l3.43,1.06a8.87,8.87,0,0,0,11.41-9.58h0a8.87,8.87,0,0,1,7.07-9.8l1.14-.23A8.87,8.87,0,0,0,458.54,230Z" style="opacity:0.5"></path><path d="M371.7,81.07l7.76-17.62h9.67L402,93.3l41.89,101.17a5.12,5.12,0,0,1-4.36,4.15h0a6.71,6.71,0,0,0-5.57,7.4l.15,1.28a6.71,6.71,0,0,1-9.05,7L421.57,213a6.69,6.69,0,0,0-8.51,3.53l-4.26,9.56a6.71,6.71,0,0,1-9.57,3l-11.5-7.67a6.73,6.73,0,0,0-6.88,0L368,229.16a6.7,6.7,0,0,1-9.56-3l-4.26-9.55a6.7,6.7,0,0,0-8.51-3.54l-3.44,1.31a6.7,6.7,0,0,1-9-7l.15-1.28a6.71,6.71,0,0,0-5.58-7.4,5.08,5.08,0,0,1-3.72-2.47Z" style="opacity:0.1"></path><path d="M443.06,181.23,389.13,55.64h-9.67L324.18,181.23c-2,4-.85,8.85,3.59,9.58a6.71,6.71,0,0,1,5.58,7.4l-.15,1.28a6.7,6.7,0,0,0,9,7l3.44-1.31a6.7,6.7,0,0,1,8.51,3.54l4.26,9.55a6.7,6.7,0,0,0,9.56,3l12.84-7.67a6.73,6.73,0,0,1,6.88,0l11.5,7.67a6.71,6.71,0,0,0,9.57-3l4.26-9.55a6.69,6.69,0,0,1,8.51-3.54l3.43,1.31a6.71,6.71,0,0,0,9.05-7l-.15-1.28a6.71,6.71,0,0,1,5.57-7.4h0C443.92,190.08,445.06,185.27,443.06,181.23Z" style="fill:#1E52D0"></path><path d="M443.06,181.23,389.13,55.64h-9.67L324.18,181.23c-2,4-.85,8.85,3.59,9.58a6.71,6.71,0,0,1,5.58,7.4l-.15,1.28a6.7,6.7,0,0,0,9,7l3.44-1.31a6.7,6.7,0,0,1,8.51,3.54l4.26,9.55a6.7,6.7,0,0,0,9.56,3l12.84-7.67a6.73,6.73,0,0,1,6.88,0l11.5,7.67a6.71,6.71,0,0,0,9.57-3l4.26-9.55a6.69,6.69,0,0,1,8.51-3.54l3.43,1.31a6.71,6.71,0,0,0,9.05-7l-.15-1.28a6.71,6.71,0,0,1,5.57-7.4h0C443.92,190.08,445.06,185.27,443.06,181.23Z" style="opacity:0.3"></path><path d="M379.46,55.64h9.67l39.3,91.52a5.87,5.87,0,0,1-1,.7l-.3.17a6,6,0,0,0-3.06,5.78h0a6.06,6.06,0,0,1-7.57,6.36l-2.34-.62a6,6,0,0,0-6.86,3l-3.22,6A6,6,0,0,1,396,171l-8.88-4.64a6.08,6.08,0,0,0-5.6,0L372.62,171a6.05,6.05,0,0,1-8.13-2.5l-3.21-6a6,6,0,0,0-6.87-3l-2.34.62a6,6,0,0,1-7.56-6.36,6,6,0,0,0-3.07-5.78l-.3-.17a6.12,6.12,0,0,1-1.66-1.4Z" style="opacity:0.1"></path><path d="M429.63,131.83,389.09,46.61l-.32-.51a5.15,5.15,0,0,0-8.95,0l-.33.53L339,131.84a6,6,0,0,0,2.18,8.44l.3.17a6,6,0,0,1,3.07,5.78,6,6,0,0,0,7.56,6.36l2.34-.62a6.06,6.06,0,0,1,6.87,3l3.21,6a6.05,6.05,0,0,0,8.13,2.5l8.87-4.64a6.08,6.08,0,0,1,5.6,0l8.88,4.64a6,6,0,0,0,8.12-2.5l3.22-6a6,6,0,0,1,6.86-3l2.34.62a6.05,6.05,0,0,0,7.57-6.36h0a6,6,0,0,1,3.06-5.78l.3-.17A6.05,6.05,0,0,0,429.63,131.83Z" style="fill:#1E52D0"></path><path d="M429.63,131.83,389.09,46.61l-.32-.51a5.15,5.15,0,0,0-8.95,0l-.33.53L339,131.84a6,6,0,0,0,2.18,8.44l.3.17a6,6,0,0,1,3.07,5.78,6,6,0,0,0,7.56,6.36l2.34-.62a6.06,6.06,0,0,1,6.87,3l3.21,6a6.05,6.05,0,0,0,8.13,2.5l8.87-4.64a6.08,6.08,0,0,1,5.6,0l8.88,4.64a6,6,0,0,0,8.12-2.5l3.22-6a6,6,0,0,1,6.86-3l2.34.62a6.05,6.05,0,0,0,7.57-6.36h0a6,6,0,0,1,3.06-5.78l.3-.17A6.05,6.05,0,0,0,429.63,131.83Z" style="opacity:0.2"></path><path d="M378.89,300.86a6.88,6.88,0,0,0-13.76,0,1.81,1.81,0,0,0,0,.38,3.52,3.52,0,0,0,2,2.62,10.76,10.76,0,0,0,9.73,0,3.53,3.53,0,0,0,2-2.62v-.38Z" style="fill:#37474f"></path><path d="M376.87,303.86a3.53,3.53,0,0,0,2-2.62v-.38a6.88,6.88,0,0,0-3.58-5.84c0,.06,3.42,4.32.92,7.15-1.73,2-7.67,2.32-10.28.78a5.31,5.31,0,0,0,1.19.91A10.76,10.76,0,0,0,376.87,303.86Z" style="fill:#263238"></path><path d="M367.76,304.32a4.86,4.86,0,0,0-9.71,0,.66.66,0,0,0,0,.14.57.57,0,0,0,0,.13,2.45,2.45,0,0,0,1.42,1.85,7.56,7.56,0,0,0,6.87,0,2.47,2.47,0,0,0,1.42-1.85.57.57,0,0,0,0-.13A.66.66,0,0,0,367.76,304.32Z" style="fill:#455a64"></path><path d="M366.34,306.44a2.47,2.47,0,0,0,1.42-1.85.57.57,0,0,0,0-.13.66.66,0,0,0,0-.14,4.53,4.53,0,0,0-.33-1.61c.12,2.08-.86,3.35-3.93,3.74s-5.08-.91-5.34-1.39a2.77,2.77,0,0,0,1.31,1.38A7.56,7.56,0,0,0,366.34,306.44Z" style="fill:#37474f"></path><path d="M403.4,299.46a4.82,4.82,0,0,0-9.64,0,.62.62,0,0,0,0,.13.66.66,0,0,0,0,.14,2.43,2.43,0,0,0,1.4,1.83,7.54,7.54,0,0,0,6.83,0,2.47,2.47,0,0,0,1.41-1.83v-.27Z" style="fill:#455a64"></path><path d="M402,301.56a2.47,2.47,0,0,0,1.41-1.83v-.27a4.76,4.76,0,0,0-.33-1.6c.12,2.07-.86,3.32-3.9,3.71s-5-.9-5.3-1.37a2.82,2.82,0,0,0,1.29,1.36A7.54,7.54,0,0,0,402,301.56Z" style="fill:#37474f"></path></g></g><g id="freepik--Character--inject-7"><g id="freepik--character--inject-7"><path d="M282.45,188.23a28.43,28.43,0,0,1-7.23,3.5,14.21,14.21,0,0,0,2.27-3.29,2.81,2.81,0,0,0-.89-3.72c-.54-.28-1.13,1.12-3.09,2.63-2.5,1.92-4.5,2.26-6.6,4.94-.79,1-4.35,2.71-9.75,2.71s-9.79-.17-9.79-.17,5.36-9.3,8-15.56,7.48-20.08,7.24-24.66c-.45-8.92-11.58-9.65-16.94-8.78,0,0-11.68,45.62-15,55.59s7.77,7.38,15.9,7a106.2,106.2,0,0,0,14.69-1.67,93.19,93.19,0,0,0,13-2.25c11.67-2.65,15.25-6.39,15.75-11.5C290.89,184.87,287.83,184.72,282.45,188.23Z" style="fill:#b16668"></path><g id="freepik--character--inject-7"><path d="M177.18,332.4c-.62-.32-2.35,1.64-2.63,2.39a10.08,10.08,0,0,0,.36,4.47,21.52,21.52,0,0,1,.66,6.85,26,26,0,0,0,.86,9.52c1.13,3.9,5.09,11,14.29,11,5.58,0,6.56-2.26,6.56-3.55Z" style="fill:#455a64"></path><path d="M194.19,334c-1.18,2.59-3.33,10.09-.12,16.47,2.15,4.3,3.16,8.46,2,12-1.21,3.69-14.54-2.07-16.18-4.93A19.11,19.11,0,0,1,177.4,348c-.11-3,.45-4.89.12-7.1-.35-2.4-1.57-5.39-.89-7.49.37-1.15,2.26-2.87,4-4.23s3.16-2.4,4-1.9l-.57.82a7.12,7.12,0,0,0,2.15,2.58c.42.34.15,2.3.7,2.51s.66-1.38,1.75-1.58A5.67,5.67,0,0,1,194.19,334Z" style="fill:#1E52D0"></path><path d="M194.19,334c-1.18,2.59-3.33,10.09-.12,16.47,2.15,4.3,3.16,8.46,2,12-1.21,3.69-14.54-2.07-16.18-4.93A19.11,19.11,0,0,1,177.4,348c-.11-3,.45-4.89.12-7.1-.35-2.4-1.57-5.39-.89-7.49.37-1.15,2.26-2.87,4-4.23s3.16-2.4,4-1.9l-.57.82a7.12,7.12,0,0,0,2.15,2.58c.42.34.15,2.3.7,2.51s.66-1.38,1.75-1.58A5.67,5.67,0,0,1,194.19,334Z" style="opacity:0.30000000000000004"></path><path d="M185,339.38a1,1,0,1,0,.39,1.86,18.5,18.5,0,0,1,7.06.14,4.19,4.19,0,0,0,.2-1.91A20,20,0,0,0,185,339.38Z" style="fill:#fff"></path><path d="M192.41,343.66a20,20,0,0,0-7.85.24,1,1,0,0,0,.48,1.84,18.43,18.43,0,0,1,7.54-.1A2.63,2.63,0,0,0,192.41,343.66Z" style="fill:#fff"></path><path d="M193.23,348.4a19.52,19.52,0,0,0-8.75.05,1,1,0,0,0,.48,1.84,17.08,17.08,0,0,1,9.22.41C194.46,350.62,194,349.1,193.23,348.4Z" style="fill:#fff"></path><path d="M179.89,357.53s3.43-5.14,9.57-5.21,7.3,2.5,7.83,3.42,2.7,6.16-1.52,8.57C195.77,364.31,185.62,367,179.89,357.53Z" style="fill:#fafafa"></path><path d="M248.3,283.87c-.24-2.07-.53-4.49-.84-7.13A139.9,139.9,0,0,0,253.53,263c5.2-13.66,7.13-47.55,6.89-54.69l-48.81,1.16c0,7.28-.48,13.91.34,23.35,1,10.94,5.61,27.51,9.48,39.84-3.75,4.33-9,10.56-11.35,14.42-4,6.39-22.16,35.46-22.16,35.46h0l-4.17,6c-.67,1.22-.93,4,1.87,6.07s6.47,1.71,7.32.68c0,0,22.14-22,35.26-35,.67,3.73,1.55,8,2.6,12.07,2.93,11.42,9,28.06,12,36.23a54.59,54.59,0,0,1,2.73,10.27h0l1.59,4.59,11-2.5-2-9.54S249.93,297.65,248.3,283.87Z" style="fill:#b16668"></path><path d="M220.89,272.63l5.48,16.47s.45,6.76,1.33,11.34l-2.32,2.35S224,295,224.77,289.5Z" style="fill:#9a4a4d"></path><path d="M211,214.66c0,.62-1.83,15.6,0,25.25s10.77,44.52,10.77,44.52,3.13,3.5,14.52,1,12-4.75,12-4.75v-3.5A106.14,106.14,0,0,0,258,248.44a264,264,0,0,0,3.08-30.22Z" style="fill:#1E52D0"></path><path d="M211,214.66c0,.62-1.83,15.6,0,25.25s10.77,44.52,10.77,44.52,3.13,3.5,14.52,1,12-4.75,12-4.75v-3.5A106.14,106.14,0,0,0,258,248.44a264,264,0,0,0,3.08-30.22Z" style="opacity:0.6"></path><path d="M246.56,274.74s-3.37-34.89-4.44-39.32c0,0,8-3.06,10.5-5.87,0,0-1.77,3.93-7.51,7.41Z" style="opacity:0.4"></path><path d="M209.86,224.53c6.66,4.85,37.8,9.52,51.79-.69.17-.12,0-1.69,0-1.89l-.09-8.55q-.09-6.6-.2-13.2-.13-7.66-.32-15.32-.18-7.47-.46-14.93-.12-3.27-.29-6.54a27.77,27.77,0,0,0-2.27-9.72,12.71,12.71,0,0,0-6.2-6.7,18.59,18.59,0,0,0-6.1-1.16,31.45,31.45,0,0,0-4.33.26c-1.62.13-3.23.28-4.85.44-3.28.34-6.56.73-9.83,1.15l-1.18.15-1,.13c-4.14.54-7.2,1-7.67,1.06h-.07c-1.35.35-2.61.67-3.62,1-2.77.82-.71.12-1.32,2.79-1.78,7.85.3,36.4.3,36.4Z" style="fill:#37474f"></path><path d="M244.9,366.59c-.64.27-.25,2.87.14,3.57a8.65,8.65,0,0,0,3.38,2.92,13.93,13.93,0,0,1,4.9,4.18,24,24,0,0,0,8.11,6.35,15.77,15.77,0,0,0,12.78-.5c4.24-2,4.57-3.22,4.32-4.9Z" style="fill:#455a64"></path><path d="M257.44,354.52c1.23,2.59,4.44,9.48,9.62,12.41,4.11,2.33,9.58,4.87,11.55,8.06s-5.38,6.29-8.69,6.45c-2.58.12-6,.4-8.68-1a22.24,22.24,0,0,1-3.76-2.43c-2.34-1.84-4.11-4.24-5.82-5.71s-5.18-2.76-6.35-4.65c-.65-1-.75-3.6-.67-5.81.06-2-.25-3.88.68-4.2l.26,1.14a20.16,20.16,0,0,0,3.84-.26c.53-.1,1.86,1.38,2.38,1.09s-.63-1.4-.08-2.37C253.52,354.06,257.44,354.52,257.44,354.52Z" style="fill:#1E52D0"></path><path d="M257.44,354.52c1.23,2.59,4.44,9.48,9.62,12.41,4.11,2.33,9.58,4.87,11.55,8.06s-5.38,6.29-8.69,6.45c-2.58.12-6,.4-8.68-1a22.24,22.24,0,0,1-3.76-2.43c-2.34-1.84-4.11-4.24-5.82-5.71s-5.18-2.76-6.35-4.65c-.65-1-.75-3.6-.67-5.81.06-2-.25-3.88.68-4.2l.26,1.14a20.16,20.16,0,0,0,3.84-.26c.53-.1,1.86,1.38,2.38,1.09s-.63-1.4-.08-2.37C253.52,354.06,257.44,354.52,257.44,354.52Z" style="opacity:0.30000000000000004"></path><path d="M266.41,366.52a12.32,12.32,0,0,0-6.32,4.42,1,1,0,0,0,.25,1.32,1,1,0,0,0,1.32-.25,10.43,10.43,0,0,1,7.25-4.05A3.61,3.61,0,0,0,266.41,366.52Z" style="fill:#fff"></path><path d="M262.77,363.26a12.09,12.09,0,0,0-6.11,4,1,1,0,0,0,.18,1.33.93.93,0,0,0,.57.19,1,1,0,0,0,.76-.37,10.58,10.58,0,0,1,6.1-3.53A2.14,2.14,0,0,0,262.77,363.26Z" style="fill:#fff"></path><path d="M261.17,361.18a1.51,1.51,0,0,0-1.1-1.69,12.07,12.07,0,0,0-6.44,3.81.95.95,0,0,0,.74,1.55,1,1,0,0,0,.74-.35A10.56,10.56,0,0,1,261.17,361.18Z" style="fill:#fff"></path><path d="M261.24,380.44s.49-6.59,5.85-9.67,7.62-.85,8.54-.3,5.42,3.55,2.9,7.74C278.53,378.21,271.63,385.39,261.24,380.44Z" style="fill:#fafafa"></path><path d="M221.61,123.37s2.23,10.45,3.12,12.17a4.74,4.74,0,0,0,2.73,2.2l-.15-7.35Z" style="fill:#263238"></path><path d="M224.4,108.4a5.15,5.15,0,0,0-4.26,1.5c-1.83,1.87-.81,7.73,1.47,13.47l4.19.48Z" style="fill:#263238"></path><path d="M227.06,123.85c-.84.51-2-1.11-3.08-2.19s-4.41-2.57-6.1,1,1.49,8.41,4.15,9.24c4.59,1.44,5.28-1.5,5.28-1.5l.3,16.87c4.81,8.7,21.07,4.25,15-1.52v-4.27a28.69,28.69,0,0,0,6.19.31c3.37-.52,5.49-3.18,6.52-6.83,1.64-5.87,2.3-10.39,1.28-22.14C255.46,100.12,239.91,100,232,105S227.06,123.85,227.06,123.85Z" style="fill:#b16668"></path><path d="M222.83,118.41c.24,1,.46,2.6,1.26,3.36,1,1,2.61,3.71,3,3.7,2.23,0,2.6-9.36,3-11a2.65,2.65,0,0,1,2.18-1.74,8.55,8.55,0,0,1,2.93.22,58.75,58.75,0,0,0,12.15.62c2.9-.08,5.86-1.66,8.46-2.93,3.83-1.88,5.91-6.55,3.56-10.46a6,6,0,0,0-6.61-2.59,6.12,6.12,0,0,0-11.2-1.35,7.18,7.18,0,0,0-7.16-1.07,6.07,6.07,0,0,0-3.6,6.11,6,6,0,0,0-6.53.54,7.56,7.56,0,0,0-2.77,6.11A48.17,48.17,0,0,0,222.83,118.41Z" style="fill:#263238"></path><path d="M219.2,113.61s4.55-4,15.74-5.69,20.29,0,22.11,2c1.06,2.15.58,4.66-.19,6.89,0,0-.07-2.22-11.66-2.22s-22.13,4-24.64,5.9C220.56,120.44,218.08,116.76,219.2,113.61Z" style="fill:#1E52D0"></path><path d="M257.63,112.11a6.14,6.14,0,0,0-.12-.86c-10.39-4.35-27-2.79-38.57,3.53a6.21,6.21,0,0,0,0,.86C230.46,109.15,247.35,107.57,257.63,112.11Z" style="fill:#fff"></path><path d="M219.49,118.29c.1.25.19.48.29.7,11.16-6.23,27.26-7.9,37.57-3.9.06-.25.11-.49.15-.74C247,110.35,230.79,112,219.49,118.29Z" style="fill:#fff"></path><path d="M242.57,141.47S235,140,232.41,138.55a8.61,8.61,0,0,1-3.64-3.6,11.83,11.83,0,0,0,2.06,4.24c1.93,2.47,11.74,4.28,11.74,4.28Z" style="fill:#9a4a4d"></path><path d="M240.45,122.72a1.51,1.51,0,1,1-1.51-1.57A1.54,1.54,0,0,1,240.45,122.72Z" style="fill:#263238"></path><path d="M238.94,117.72l-3.23,1.79a1.94,1.94,0,0,1,.76-2.57A1.79,1.79,0,0,1,238.94,117.72Z" style="fill:#263238"></path><path d="M242.72,133.15l3.44,1.29a1.82,1.82,0,0,1-2.34,1.15A1.93,1.93,0,0,1,242.72,133.15Z" style="fill:#9a4a4d"></path><path d="M253.76,118.6l-3.39-1.52a1.79,1.79,0,0,1,2.4-1A2,2,0,0,1,253.76,118.6Z" style="fill:#263238"></path><path d="M252.83,122.72a1.51,1.51,0,1,1-1.51-1.57A1.54,1.54,0,0,1,252.83,122.72Z" style="fill:#263238"></path><polygon points="244.78 121.67 245.28 130.75 250.02 129.14 244.78 121.67" style="fill:#9a4a4d"></polygon></g><path d="M229.23,229.49a23.69,23.69,0,0,0,.92-4.52l.06-.52a8.83,8.83,0,0,1,4.58-6.93l.27-.14a9.36,9.36,0,0,0,3.72-3.42,5.79,5.79,0,0,0,.15-5.4,9.87,9.87,0,0,0-.75-1.23,2.22,2.22,0,0,1-.08-2.49l1.38-2.12-6.81-4.4-1.38,2.12a2.2,2.2,0,0,1-2.29,1,10.2,10.2,0,0,0-1.43-.19,5.81,5.81,0,0,0-4.87,2.35,9.47,9.47,0,0,0-1.59,4.8c0,.1,0,.19,0,.29a8.83,8.83,0,0,1-4.43,7l-.45.27a22.82,22.82,0,0,0-3.74,2.7,19.74,19.74,0,0,0-2.69,3.46l-6.4,9.9c-.83,1.29-.81,3.12.25,5.19a14,14,0,0,0,4,4.6,17.21,17.21,0,0,0,2.46,1.59,14.23,14.23,0,0,0,5.81,1.75c2.32.12,4-.62,4.83-1.9l4.63-7.17c.58-.89,1.21-1.8,1.82-2.73A20.46,20.46,0,0,0,229.23,229.49Z" style="fill:#1E52D0"></path><path d="M229.23,229.49a23.69,23.69,0,0,0,.92-4.52l.06-.52a8.83,8.83,0,0,1,4.58-6.93l.27-.14a9.36,9.36,0,0,0,3.72-3.42,5.79,5.79,0,0,0,.15-5.4,9.87,9.87,0,0,0-.75-1.23,2.22,2.22,0,0,1-.08-2.49l1.38-2.12-6.81-4.4-1.38,2.12a2.2,2.2,0,0,1-2.29,1,10.2,10.2,0,0,0-1.43-.19,5.81,5.81,0,0,0-4.87,2.35,9.47,9.47,0,0,0-1.59,4.8c0,.1,0,.19,0,.29a8.83,8.83,0,0,1-4.43,7l-.45.27a22.82,22.82,0,0,0-3.74,2.7,19.74,19.74,0,0,0-2.69,3.46l-6.4,9.9c-.83,1.29-.81,3.12.25,5.19a14,14,0,0,0,4,4.6,17.21,17.21,0,0,0,2.46,1.59,14.23,14.23,0,0,0,5.81,1.75c2.32.12,4-.62,4.83-1.9l4.63-7.17c.58-.89,1.21-1.8,1.82-2.73A20.46,20.46,0,0,0,229.23,229.49Z" style="fill:#fff;opacity:0.75"></path><path d="M234.79,217.52l.27-.14a9.41,9.41,0,0,0,3.3-2.8,7.48,7.48,0,0,1-1.56,1,15.74,15.74,0,0,1-5.13,1.24c-1.78.2-3.77.46-4.88,1.87s-.89,3.34-.29,5a44.18,44.18,0,0,1,2,4.81,10.62,10.62,0,0,1,.24,2.25c.19-.4.37-.8.52-1.21a23.69,23.69,0,0,0,.92-4.52l.06-.52A8.83,8.83,0,0,1,234.79,217.52Z" style="opacity:0.05"></path><path d="M208.9,224.18s-.18,0-.48,0l-2,3.07c1.06,3.42,4.85,7.81,9.28,9,4.15,1.09,8.65.21,11-2.18l1.21-2-13.31-5.23Z" style="opacity:0.1"></path><path d="M230,200l-.74,1.14a2.72,2.72,0,0,0,.13,2.77,8.62,8.62,0,0,0,6.54,4.23,3.71,3.71,0,0,0,1.59-.23,2,2,0,0,0,1-.78l.75-1.17a1.29,1.29,0,0,0,.17-.33,3,3,0,0,0-.3-2.43l0-.08a8.66,8.66,0,0,0-6.5-4.15,3,3,0,0,0-2.34.73A1.76,1.76,0,0,0,230,200Z" style="fill:#1E52D0"></path><path d="M236.67,206.94c2.48.12,3.57-1.57,2.44-3.78a8.58,8.58,0,0,0-6.54-4.22c-2.48-.13-3.57,1.56-2.44,3.77A8.62,8.62,0,0,0,236.67,206.94Z" style="opacity:0.1"></path><path d="M230.85,198.62l-.44.69a1.92,1.92,0,0,0-.18.35,3,3,0,0,0,.31,2.43,7.62,7.62,0,0,0,2.39,2.63,8.14,8.14,0,0,0,4.15,1.59,3.66,3.66,0,0,0,1.58-.23,2,2,0,0,0,.75-.49,1.28,1.28,0,0,0,.23-.29l.46-.71a3.47,3.47,0,0,0-.29-3.05,8.66,8.66,0,0,0-6.38-3.94A2.74,2.74,0,0,0,230.85,198.62Z" style="fill:#1E52D0"></path><path d="M230.87,198.6c-1,1.47.35,4,2.9,5.64s5.39,1.8,6.34.34-.35-4-2.9-5.65S231.82,197.13,230.87,198.6Z" style="fill:#fff;opacity:0.5"></path><path d="M235.66,197.81l-1.55,2.4a.67.67,0,0,0-.06.12,1,1,0,0,0,.1.84,3,3,0,0,0,2.27,1.46,1.16,1.16,0,0,0,.55-.08.78.78,0,0,0,.26-.17.39.39,0,0,0,.08-.1l1.55-2.4a.92.92,0,0,0,0-1l-.06-.1a3,3,0,0,0-2.21-1.36A.94.94,0,0,0,235.66,197.81Z" style="fill:#1E52D0"></path><path d="M235.66,197.81c-.33.5.12,1.38,1,1.95s1.87.63,2.2.12-.12-1.39-1-2S236,197.3,235.66,197.81Z" style="fill:#fff;opacity:0.5"></path><path d="M236.7,198.47c-.12.18,0,.49.35.7s.67.22.78,0,0-.49-.35-.7S236.81,198.29,236.7,198.47Z" style="fill:#1E52D0;opacity:0.5"></path><path d="M236.7,198.47c-.12.18,0,.49.35.7s.67.22.78,0,0-.49-.35-.7S236.81,198.29,236.7,198.47Z" style="opacity:0.30000000000000004"></path><path d="M224.86,222.67c-2.46-.37-6.84-2.21-8.13-3.69a3.62,3.62,0,0,1-1.13-2.63,16,16,0,0,0,3-2.19,38.92,38.92,0,0,0-3.58-1.87c-1.47-.55-4-2.8-5.81-4.61a103.66,103.66,0,0,1-11.44-16.77l13.52-16.2A10.94,10.94,0,0,0,220,168.4c2-3.87,4.58-12.91-.71-19.74a21.63,21.63,0,0,0-9.35,1.91c-3.49,1.46-9.23,8.3-13.76,14.93-3.94,5.77-15.12,21.06-15.52,26.77-.17,2.35,2.64,6,9.69,13.39h0c3.13,3.39,6.73,7.08,10.57,11.06,2.56,2.61,6.91,10.51,9.39,13.25,3.48,3.85,5.88,4.86,9,4.92s8.83-1,10.49-5.67S229.14,223.33,224.86,222.67Z" style="fill:#b16668"></path><path d="M204.05,220.85a3.88,3.88,0,0,1-.23-3.77,16.19,16.19,0,0,1,5.87-6.32c1.85-1,2.74-.16,2.74-.16a9.34,9.34,0,0,0-3.2-3.65,1.55,1.55,0,0,0-1.13-.21,6.51,6.51,0,0,0-2.87,1.37c-1.84,1.47-4.14,3.94-4.86,6.08a5.4,5.4,0,0,0-.15,3A22.81,22.81,0,0,0,204.05,220.85Z" style="fill:#37474f"></path><path d="M201.87,213.21l2,2a1.53,1.53,0,0,0,2.2,0l2.5-2.65a1.67,1.67,0,0,0,0-2.28l-1.87-1.94a1.51,1.51,0,0,0-2.19,0l-2.66,2.7A1.58,1.58,0,0,0,201.87,213.21Z" style="fill:#263238"></path><path d="M201.32,213.24l2,2a1.53,1.53,0,0,0,2.2,0l2.5-2.65a1.67,1.67,0,0,0,0-2.28l-1.87-1.95a1.52,1.52,0,0,0-2.19,0L201.3,211A1.58,1.58,0,0,0,201.32,213.24Z" style="fill:#455a64"></path><path d="M207.88,211.35a1.05,1.05,0,0,1-.28.8l-2.5,2.65a1,1,0,0,1-.67.3,1,1,0,0,1-.68-.28l-2-2a1,1,0,0,1-.29-.63,1,1,0,0,1,.28-.76l2.65-2.69a.92.92,0,0,1,.67-.29,1,1,0,0,1,.68.3l1.86,1.94a1.05,1.05,0,0,1,.29.66Z" style="fill:#1E52D0"></path><g style="opacity:0.30000000000000004"><path d="M196.46,217.52h-.14l-5.55-1A.75.75,0,1,1,191,215l5.56,1a.75.75,0,0,1-.14,1.49Z"></path><path d="M191.28,222.22a.74.74,0,0,1-.7-.5.75.75,0,0,1,.46-1l5.33-1.87a.75.75,0,1,1,.5,1.41l-5.34,1.88A.69.69,0,0,1,191.28,222.22Z"></path><path d="M194.49,227a.75.75,0,0,1-.57-1.24l3.68-4.29a.75.75,0,0,1,1.06-.08.76.76,0,0,1,.08,1.06l-3.69,4.29A.73.73,0,0,1,194.49,227Z"></path><path d="M199.65,229.55h-.14a.75.75,0,0,1-.59-.88l1-5.55a.75.75,0,1,1,1.47.27l-1,5.56A.75.75,0,0,1,199.65,229.55Z"></path></g></g></g></svg>